<?xml version="1.0" standalone="no"?>
<!DOCTYPE svg PUBLIC "-//W3C//DTD SVG 20010904//EN" "http://www.w3.org/TR/2001/REC-SVG-20010904/DTD/svg10.dtd">
<svg version="1.1" xmlns="http://www.w3.org/2000/svg" xmlns:xlink="http://www.w3.org/1999/xlink" width="1000" height="375">
<g>
<path d="M132.700 50.682 C 133.195 50.778,134.005 50.778,134.500 50.682 C 134.995 50.587,134.590 50.509,133.600 50.509 C 132.610 50.509,132.205 50.587,132.700 50.682 M88.383 116.500 C 89.364 117.545,90.219 118.400,90.283 118.400 C 90.584 118.400,90.266 118.041,88.500 116.383 L 86.600 114.600 88.383 116.500 " stroke="none" fill="#000" fill-rule="evenodd">
</path>
<path d="M98.400 16.657 C 95.320 17.273,91.361 18.759,88.560 20.350 C 85.674 21.989,82.157 25.126,79.983 28.000 C 79.234 28.990,78.526 29.890,78.410 30.000 C 78.117 30.279,76.915 32.400,76.371 33.600 C 76.121 34.150,75.498 35.500,74.986 36.600 C 70.846 45.487,69.984 64.400,73.200 75.800 L 73.990 78.600 73.795 72.200 C 73.339 57.213,74.740 49.246,79.517 39.676 C 80.319 38.068,81.206 36.561,81.488 36.327 C 81.770 36.093,82.000 35.695,82.000 35.441 C 82.000 34.353,87.516 29.284,90.691 27.455 C 99.721 22.252,110.974 24.223,114.718 31.664 C 116.925 36.051,117.048 47.618,114.890 47.928 C 114.401 47.998,114.000 48.191,114.000 48.357 C 114.000 48.523,113.145 49.081,112.100 49.597 C 111.055 50.113,110.110 50.646,110.000 50.781 C 109.890 50.917,108.630 51.860,107.200 52.877 C 105.770 53.895,104.297 55.059,103.927 55.464 C 103.558 55.869,102.523 56.828,101.627 57.597 C 100.732 58.365,100.000 59.220,100.000 59.497 C 100.000 59.773,99.826 60.000,99.613 60.000 C 99.057 60.000,96.370 63.817,95.108 66.400 C 89.131 78.628,101.682 86.882,111.384 77.104 C 113.211 75.263,114.075 74.120,116.301 70.593 C 118.344 67.358,120.919 60.963,122.127 56.128 C 122.653 54.024,123.169 52.787,123.572 52.663 C 133.716 49.548,139.066 50.064,143.715 54.602 C 144.972 55.830,146.000 57.096,146.000 57.417 C 146.000 57.738,146.139 58.000,146.309 58.000 C 147.305 58.000,149.203 64.217,149.191 67.435 C 149.174 71.561,146.642 78.705,144.594 80.405 C 144.267 80.676,144.000 81.074,144.000 81.288 C 144.000 81.922,135.632 90.000,134.976 90.000 C 134.645 90.000,134.280 90.247,134.164 90.549 C 134.048 90.851,133.109 91.580,132.077 92.169 C 131.045 92.758,129.300 93.776,128.200 94.433 C 127.100 95.089,125.930 95.730,125.600 95.857 C 125.270 95.984,124.100 96.497,123.000 96.997 C 110.925 102.487,89.404 105.682,79.193 103.499 C 77.926 103.229,74.890 99.628,74.049 97.400 C 73.966 97.180,73.584 96.640,73.201 96.200 C 72.630 95.545,69.527 89.988,68.398 87.600 C 68.242 87.270,67.787 86.370,67.387 85.600 C 66.635 84.153,66.536 83.950,65.451 81.600 C 65.096 80.830,64.643 79.930,64.445 79.600 C 64.247 79.270,63.890 78.550,63.652 78.000 C 63.413 77.450,62.768 76.280,62.218 75.400 C 61.669 74.520,60.874 73.170,60.452 72.400 C 60.030 71.630,59.306 70.657,58.843 70.238 C 58.379 69.819,58.000 69.248,58.000 68.969 C 58.000 68.401,49.770 60.000,49.213 60.000 C 49.017 60.000,48.594 59.737,48.273 59.416 C 42.138 53.281,27.945 52.151,22.000 57.324 C 17.728 61.041,16.283 69.083,18.919 74.469 C 19.513 75.685,20.000 76.805,20.000 76.959 C 20.000 77.469,22.893 81.794,23.451 82.120 C 23.753 82.296,24.000 82.680,24.000 82.974 C 24.000 83.268,24.450 83.803,25.000 84.163 C 25.550 84.524,26.000 84.986,26.000 85.190 C 26.000 85.831,31.063 90.430,34.953 93.322 C 36.079 94.159,37.296 95.086,37.657 95.382 C 38.019 95.677,38.694 96.039,39.157 96.186 C 39.621 96.334,40.000 96.605,40.000 96.789 C 40.000 97.091,41.378 97.952,46.200 100.664 C 49.272 102.391,56.962 106.000,57.571 106.000 C 57.802 106.000,59.118 106.431,60.496 106.958 C 63.915 108.267,70.371 110.000,71.824 110.000 C 72.786 110.000,73.477 110.511,75.408 112.653 C 76.724 114.112,78.501 115.957,79.357 116.753 C 80.214 117.549,81.834 119.054,82.957 120.097 C 84.081 121.140,85.225 121.995,85.500 121.997 C 85.775 121.999,86.000 122.138,86.000 122.306 C 86.000 122.601,88.763 124.586,91.355 126.153 C 103.675 133.601,118.536 135.413,131.570 131.059 C 134.842 129.966,133.827 129.763,129.126 130.570 C 120.723 132.014,108.909 130.339,103.033 126.872 C 102.220 126.392,101.305 126.000,101.001 126.000 C 100.696 126.000,100.334 125.817,100.196 125.594 C 100.059 125.371,99.283 124.845,98.473 124.425 C 97.663 124.005,96.583 123.333,96.073 122.931 C 95.564 122.529,93.944 121.250,92.473 120.088 C 91.003 118.927,88.582 116.677,87.094 115.088 L 84.389 112.200 91.494 111.923 C 95.402 111.770,100.220 111.349,102.200 110.987 C 104.180 110.625,106.790 110.186,108.000 110.012 C 111.971 109.440,119.845 107.003,124.309 104.963 C 125.469 104.434,126.597 104.000,126.817 104.000 C 127.036 104.000,127.929 103.550,128.800 103.000 C 129.671 102.450,130.572 102.000,130.801 102.000 C 131.220 102.000,131.892 101.601,137.000 98.313 C 141.045 95.710,148.000 89.749,148.000 88.886 C 148.000 88.669,148.450 88.197,149.000 87.837 C 149.550 87.476,150.000 86.931,150.000 86.624 C 150.000 86.318,150.150 86.007,150.333 85.933 C 150.516 85.860,151.311 84.786,152.098 83.547 C 157.476 75.084,158.588 64.941,154.963 57.394 C 154.434 56.290,154.000 55.273,154.000 55.134 C 154.000 54.552,150.999 50.477,149.429 48.927 C 144.340 43.901,136.047 41.745,128.200 43.407 C 126.660 43.733,125.202 44.000,124.959 44.000 C 124.675 44.000,124.418 42.213,124.239 38.999 C 124.086 36.249,123.716 33.234,123.417 32.299 C 122.411 29.158,121.280 26.423,120.738 25.820 C 120.442 25.491,119.660 24.522,119.000 23.666 C 115.502 19.131,104.591 15.418,98.400 16.657 M266.998 17.330 C 265.678 17.809,263.912 18.605,263.076 19.100 C 262.239 19.595,261.421 20.000,261.258 20.000 C 261.096 20.000,260.611 20.271,260.181 20.601 C 259.752 20.932,258.230 21.969,256.800 22.906 C 252.989 25.403,248.749 28.498,248.041 29.300 C 247.701 29.685,247.237 30.003,247.011 30.007 C 246.785 30.011,246.171 30.466,245.646 31.019 C 244.350 32.386,244.275 32.127,245.205 29.482 C 247.011 24.343,245.328 20.326,241.128 19.754 C 237.241 19.224,236.000 20.663,236.000 25.703 C 236.000 27.284,235.715 33.764,235.367 40.101 C 234.806 50.317,234.802 51.889,235.326 53.956 C 236.198 57.393,235.565 60.257,233.340 62.931 C 231.322 65.358,231.780 67.200,234.402 67.200 C 235.481 67.200,235.972 67.002,236.137 66.500 C 236.361 65.819,237.680 63.448,238.767 61.770 C 239.297 60.953,239.328 60.951,240.737 61.670 C 242.503 62.570,244.309 62.607,245.243 61.761 C 246.049 61.032,246.714 61.298,247.171 62.533 C 247.488 63.391,246.306 65.783,245.384 66.146 C 244.599 66.456,238.395 71.263,236.246 73.227 C 233.676 75.577,233.488 76.170,232.589 84.782 C 231.873 91.636,231.916 92.062,233.491 93.887 C 234.652 95.232,238.094 97.600,238.889 97.600 C 239.717 97.600,237.781 99.084,236.373 99.530 C 235.024 99.957,231.932 100.926,225.200 103.033 C 223.330 103.619,220.763 104.446,219.496 104.872 C 218.229 105.297,216.198 105.905,214.982 106.222 C 210.210 107.464,208.958 110.046,211.870 112.637 C 214.308 114.806,218.560 114.932,222.487 112.952 C 223.524 112.428,224.561 112.000,224.791 112.000 C 225.021 112.000,225.972 111.648,226.904 111.218 C 227.837 110.788,229.320 110.178,230.200 109.862 C 231.080 109.547,233.330 108.721,235.200 108.029 C 242.427 105.353,244.260 104.702,246.000 104.197 C 246.990 103.909,248.790 103.318,250.000 102.883 C 254.841 101.143,264.818 98.518,268.600 97.989 C 269.920 97.804,273.070 97.354,275.600 96.988 C 278.853 96.517,281.269 96.402,283.850 96.595 L 287.500 96.867 281.774 105.419 C 275.393 114.947,273.586 117.460,271.432 119.800 C 270.622 120.680,269.453 121.954,268.834 122.632 L 267.709 123.864 266.763 122.132 C 264.568 118.113,263.184 122.874,265.231 127.400 C 265.629 128.280,266.057 129.487,266.181 130.083 C 266.516 131.692,268.733 133.596,270.274 133.598 C 271.761 133.600,274.481 131.071,277.800 126.600 C 278.900 125.118,280.295 123.318,280.900 122.600 C 281.505 121.882,282.000 121.121,282.000 120.909 C 282.000 120.697,282.379 120.181,282.843 119.762 C 283.306 119.343,284.031 118.370,284.454 117.600 C 284.877 116.830,285.573 115.660,286.001 115.000 C 286.429 114.340,287.235 112.990,287.793 112.000 C 288.351 111.010,289.526 109.057,290.404 107.660 C 291.282 106.263,292.000 105.061,292.000 104.989 C 292.000 104.917,292.857 103.451,293.904 101.729 C 294.952 100.008,296.044 98.150,296.331 97.600 C 297.311 95.724,298.270 94.057,299.021 92.928 C 299.433 92.308,300.059 91.260,300.413 90.600 C 301.326 88.894,302.480 86.912,304.363 83.812 C 305.263 82.331,306.000 81.043,306.000 80.951 C 306.000 80.796,306.717 79.625,309.029 76.000 C 309.520 75.230,310.496 73.250,311.198 71.600 C 312.414 68.740,314.314 66.400,315.421 66.400 C 315.704 66.400,316.192 66.301,316.507 66.180 C 317.183 65.921,318.743 67.474,324.769 74.400 C 326.282 76.139,326.284 76.274,324.800 76.600 C 323.306 76.928,323.306 77.307,324.795 80.244 C 325.452 81.540,325.997 82.780,326.006 83.000 C 326.052 84.173,330.000 87.534,330.000 86.400 C 330.000 86.180,330.225 85.999,330.500 85.997 C 330.775 85.995,331.919 85.140,333.041 84.097 C 334.164 83.054,337.494 80.049,340.441 77.420 L 345.800 72.640 345.921 74.942 C 346.205 80.360,340.486 90.628,337.767 89.582 C 332.441 87.532,316.441 87.518,309.400 89.557 L 308.200 89.904 310.200 90.818 C 312.088 91.680,316.020 92.385,325.600 93.580 C 329.259 94.037,334.800 95.729,334.800 96.390 C 334.800 97.922,328.409 104.915,324.800 107.334 C 323.590 108.145,322.248 109.076,321.819 109.404 C 321.389 109.732,320.883 110.000,320.693 110.000 C 320.504 110.000,319.416 110.433,318.275 110.962 C 312.858 113.474,305.267 114.953,303.211 113.896 C 302.483 113.522,302.009 112.686,301.411 110.721 C 300.378 107.326,300.123 107.107,299.789 109.331 C 299.024 114.434,301.099 116.683,308.142 118.386 C 314.208 119.852,321.689 118.767,327.729 115.546 C 328.130 115.332,329.191 114.775,330.087 114.308 C 331.647 113.495,342.000 103.464,342.000 102.766 C 342.000 101.691,343.569 101.662,345.075 102.710 C 347.182 104.175,347.887 104.618,350.000 105.800 C 351.533 106.658,355.550 109.080,357.600 110.384 C 364.559 114.807,369.250 115.600,370.683 112.595 C 372.453 108.883,368.714 104.662,359.579 100.062 C 348.799 94.633,348.501 94.325,350.405 90.591 C 351.730 87.992,353.854 81.254,354.626 77.200 C 356.403 67.869,355.464 66.000,348.994 66.000 C 346.907 66.000,345.200 65.878,345.200 65.728 C 345.200 62.304,350.513 54.527,353.289 53.888 C 356.006 53.263,360.367 51.850,361.595 51.198 C 362.368 50.788,363.685 50.145,364.521 49.770 C 367.982 48.220,365.678 45.545,360.400 44.987 C 358.819 44.820,356.787 44.235,355.214 43.495 C 346.992 39.623,340.387 40.555,338.284 45.884 C 336.996 49.148,332.521 53.718,329.000 55.367 C 323.958 57.728,319.995 58.604,320.008 57.354 C 320.031 55.334,321.759 49.473,322.664 48.346 C 322.906 48.046,323.828 46.250,324.715 44.355 C 326.985 39.500,328.786 37.969,335.400 35.272 C 344.252 31.662,352.528 27.810,353.217 26.980 C 354.449 25.494,352.989 24.529,348.176 23.645 C 342.012 22.513,338.968 23.150,331.605 27.112 C 326.290 29.972,323.403 31.318,319.200 32.898 C 316.705 33.836,316.021 34.082,312.000 35.490 C 311.010 35.836,309.315 36.471,308.233 36.900 C 307.151 37.329,305.441 37.919,304.433 38.210 C 296.936 40.379,295.398 42.422,298.842 45.639 C 301.104 47.752,303.200 47.646,311.400 45.006 C 315.809 43.587,316.419 43.485,316.140 44.211 C 316.009 44.552,314.124 48.353,311.951 52.657 C 309.778 56.961,307.995 60.689,307.988 60.941 C 307.948 62.527,303.319 65.740,300.467 66.163 C 297.298 66.633,290.800 71.053,290.800 72.738 C 290.800 74.346,296.351 74.249,298.400 72.605 C 299.239 71.932,302.401 70.743,302.393 71.103 C 302.390 71.266,301.961 72.120,301.441 73.000 C 300.920 73.880,299.892 75.770,299.155 77.200 C 298.419 78.630,297.704 79.890,297.568 80.000 C 297.431 80.110,296.887 80.926,296.360 81.813 C 294.114 85.589,293.740 86.193,292.562 87.950 C 291.062 90.186,289.387 90.802,286.036 90.350 C 284.806 90.184,282.969 89.940,281.952 89.807 L 280.105 89.567 281.012 87.683 C 283.502 82.514,284.012 81.362,284.006 80.923 C 284.003 80.660,284.346 79.850,284.768 79.123 C 288.749 72.267,287.513 68.485,280.765 66.871 L 277.962 66.200 278.090 52.400 C 278.202 40.274,278.323 38.042,279.085 34.000 C 281.413 21.645,281.532 18.403,279.675 17.829 C 274.695 16.289,270.346 16.118,266.998 17.330 M329.800 17.481 C 327.330 18.102,322.000 19.411,316.898 20.650 C 313.081 21.577,312.994 21.643,313.724 23.047 C 315.860 27.153,320.252 27.688,329.458 24.964 C 331.250 24.434,332.929 24.000,333.190 24.000 C 333.918 24.000,338.834 22.000,340.348 21.088 L 341.696 20.276 340.767 19.575 C 340.256 19.190,339.110 18.639,338.219 18.350 C 337.329 18.062,336.150 17.596,335.600 17.315 C 334.341 16.673,332.844 16.715,329.800 17.481 M270.000 22.892 C 270.457 23.383,270.946 24.238,271.086 24.792 C 271.358 25.865,270.505 54.779,270.127 57.282 L 269.903 58.765 267.896 57.682 C 266.792 57.087,265.599 56.418,265.244 56.195 C 264.890 55.973,263.304 55.025,261.720 54.089 C 260.136 53.153,258.757 52.254,258.656 52.091 C 258.555 51.928,259.719 49.275,261.243 46.197 C 264.399 39.821,265.264 36.265,264.448 33.026 C 264.202 32.047,264.000 30.761,264.000 30.168 L 264.000 29.090 261.500 29.347 C 256.372 29.877,254.017 31.338,253.182 34.507 C 251.947 39.200,251.909 39.268,249.736 40.658 C 248.582 41.396,247.405 42.006,247.119 42.013 C 246.834 42.020,246.251 42.290,245.824 42.613 C 243.800 44.143,243.599 42.368,245.326 38.200 C 246.465 35.449,251.574 30.000,253.015 30.000 C 253.146 30.000,253.843 29.550,254.564 29.000 C 255.286 28.450,256.022 28.000,256.200 28.000 C 256.378 28.000,257.081 27.589,257.762 27.086 C 258.443 26.584,259.450 25.957,260.000 25.694 C 260.550 25.430,262.260 24.500,263.800 23.626 C 267.046 21.784,268.777 21.579,270.000 22.892 M207.786 31.950 C 206.310 32.604,205.967 33.328,206.484 34.697 C 207.065 36.237,206.345 38.736,204.941 40.056 C 204.423 40.542,204.000 41.096,204.000 41.287 C 204.000 41.478,203.812 41.851,203.581 42.117 C 201.444 44.582,198.000 51.025,198.000 52.558 C 198.000 53.941,199.869 55.524,204.600 58.145 C 205.260 58.511,206.160 59.033,206.600 59.305 C 207.040 59.577,207.449 59.819,207.509 59.842 C 207.642 59.894,206.219 64.447,204.929 68.095 C 204.405 69.578,203.554 72.008,203.038 73.495 C 202.522 74.983,201.787 77.100,201.403 78.200 C 200.328 81.282,199.227 86.046,199.231 87.600 C 199.238 90.836,201.880 97.272,203.447 97.873 C 203.751 97.990,204.000 98.287,204.000 98.533 C 204.000 99.354,207.379 102.008,208.981 102.444 C 211.836 103.221,213.993 101.978,217.000 97.822 C 218.490 95.763,222.024 88.587,221.988 87.696 C 221.981 87.533,222.427 85.960,222.978 84.200 C 224.122 80.550,225.788 74.744,226.172 73.068 C 226.603 71.188,225.599 71.893,221.992 76.000 C 220.157 78.090,218.463 80.004,218.228 80.253 C 217.992 80.502,216.540 82.115,215.000 83.837 C 213.460 85.559,211.705 87.420,211.100 87.973 C 210.495 88.526,210.000 89.109,210.000 89.270 C 210.000 89.730,207.127 92.400,206.632 92.400 C 205.470 92.400,204.307 87.779,204.300 83.134 C 204.286 73.926,206.804 66.927,212.900 59.221 C 214.385 57.344,215.600 55.512,215.600 55.150 C 215.600 53.574,210.606 52.020,205.500 52.007 C 202.566 51.999,202.438 51.864,203.505 49.899 C 204.449 48.158,206.012 46.663,208.295 45.315 C 211.021 43.706,211.370 43.487,212.633 42.600 C 213.599 41.921,214.340 41.812,217.534 41.876 C 220.978 41.946,225.600 40.956,225.600 40.148 C 225.600 40.042,225.389 39.114,225.130 38.088 C 224.275 34.690,223.844 34.191,220.400 32.602 C 218.782 31.856,209.126 31.357,207.786 31.950 M248.228 50.300 C 248.086 50.905,247.499 52.717,246.922 54.326 L 245.874 57.252 245.099 56.028 C 243.246 53.101,243.862 50.415,246.567 49.630 C 248.435 49.088,248.506 49.116,248.228 50.300 M113.222 58.700 C 113.011 59.085,112.182 60.840,111.380 62.600 C 108.757 68.359,104.322 74.000,102.419 74.000 C 100.943 74.000,101.537 69.705,103.224 68.178 C 103.651 67.792,104.000 67.274,104.000 67.027 C 104.000 66.780,104.315 66.285,104.700 65.928 C 105.085 65.571,106.154 64.496,107.077 63.539 C 109.500 61.026,110.662 60.000,111.087 60.000 C 111.292 60.000,111.883 59.550,112.400 59.000 C 113.505 57.824,113.753 57.733,113.222 58.700 M264.688 60.300 C 274.338 69.135,273.670 68.007,269.900 69.100 C 268.305 69.563,265.110 70.424,262.800 71.014 C 254.810 73.057,253.643 73.485,250.811 75.421 C 249.265 76.477,248.000 77.489,248.000 77.671 C 248.000 77.852,247.801 78.000,247.558 78.000 C 247.315 78.000,246.607 78.405,245.985 78.900 C 245.364 79.395,244.197 80.250,243.392 80.800 C 242.587 81.350,241.336 82.295,240.612 82.900 C 238.947 84.290,238.795 84.271,237.687 82.536 C 236.731 81.039,237.146 80.050,238.746 80.013 C 239.232 80.001,240.569 79.378,244.600 77.283 C 245.260 76.940,246.070 76.536,246.400 76.387 C 246.942 76.140,248.404 75.393,250.600 74.238 C 254.426 72.227,258.000 69.436,258.000 68.460 C 258.000 68.207,258.147 68.000,258.326 68.000 C 258.609 68.000,260.000 65.496,260.000 64.986 C 260.000 64.615,258.840 64.812,257.732 65.372 C 257.110 65.686,254.620 66.869,252.200 68.000 C 249.780 69.131,247.316 70.299,246.725 70.595 C 245.808 71.055,245.682 71.051,245.868 70.567 C 245.988 70.255,246.305 70.000,246.573 70.000 C 246.841 70.000,247.483 69.550,248.000 69.000 C 248.517 68.450,249.178 68.000,249.470 68.000 C 249.761 68.000,250.000 67.865,250.001 67.700 C 250.001 67.535,250.901 66.787,252.001 66.037 C 253.100 65.288,254.000 64.523,254.000 64.337 C 254.000 64.152,254.239 64.000,254.530 64.000 C 254.822 64.000,255.483 63.550,256.000 63.000 C 256.517 62.450,257.086 62.000,257.265 62.000 C 257.444 62.000,257.908 61.736,258.295 61.414 C 259.514 60.401,262.191 58.456,262.407 58.427 C 262.520 58.412,263.547 59.255,264.688 60.300 M336.089 61.900 C 335.509 62.945,334.802 64.038,334.517 64.329 C 334.233 64.619,334.000 65.036,334.000 65.255 C 334.000 65.474,333.571 66.226,333.046 66.927 C 332.522 67.627,331.970 68.605,331.819 69.100 C 331.669 69.595,331.400 70.000,331.222 70.000 C 331.043 70.000,330.667 70.556,330.385 71.237 C 329.542 73.272,329.041 71.661,329.654 68.889 C 330.266 66.127,332.244 63.217,334.773 61.361 C 337.187 59.589,337.338 59.651,336.089 61.900 M38.800 63.069 C 43.554 65.230,48.708 69.570,51.642 73.882 C 52.360 74.937,53.053 75.890,53.183 76.000 C 53.800 76.524,55.327 79.335,59.687 87.979 C 62.290 93.137,64.662 97.637,64.958 97.979 C 67.166 100.523,65.677 100.916,61.288 98.947 C 60.127 98.426,59.007 98.000,58.799 98.000 C 58.381 98.000,49.305 93.353,47.387 92.157 C 46.719 91.740,45.577 91.040,44.848 90.600 C 44.120 90.160,42.866 89.302,42.062 88.694 C 41.258 88.085,40.188 87.275,39.684 86.894 C 28.164 78.169,22.644 67.981,27.047 63.570 C 29.275 61.338,34.504 61.115,38.800 63.069 M279.855 71.432 C 280.409 72.266,280.410 72.263,278.547 75.685 C 274.854 82.471,266.747 90.880,265.296 89.430 C 264.960 89.093,266.055 85.527,267.025 83.800 C 269.028 80.237,269.139 76.020,267.285 73.898 C 266.490 72.987,266.537 72.957,269.600 72.389 C 271.030 72.124,273.640 71.582,275.400 71.186 C 279.056 70.362,279.148 70.367,279.855 71.432 M263.200 74.940 C 263.200 75.127,261.454 78.404,260.776 79.489 C 260.364 80.149,259.981 80.296,259.120 80.124 C 258.024 79.905,258.000 79.939,258.000 81.726 C 258.000 84.065,257.449 84.409,256.859 82.440 C 255.855 79.087,256.922 76.920,260.197 75.660 C 262.151 74.908,263.200 74.657,263.200 74.940 M248.801 82.900 C 248.801 82.955,249.071 84.530,249.400 86.400 C 250.374 91.931,250.277 92.693,248.500 93.461 C 247.675 93.817,246.100 94.526,245.000 95.035 C 241.143 96.822,240.812 96.784,240.719 94.543 C 240.538 90.182,241.322 87.716,243.556 85.620 C 244.838 84.417,248.798 82.363,248.801 82.900 " stroke="none" fill="#fff" fill-rule="evenodd">
</path>
</g>
</svg>