<?xml version="1.0" encoding="UTF-8"?>
<svg width="449px" height="193px" viewBox="0 0 449 193" version="1.1" xmlns="http://www.w3.org/2000/svg" xmlns:xlink="http://www.w3.org/1999/xlink">
    <!-- Generator: Sketch 40.1 (33804) - http://www.bohemiancoding.com/sketch -->
    <title>tell-your-story</title>
    <desc>Created with Sketch.</desc>
    <defs></defs>
    <g id="Page-1" stroke="none" stroke-width="1" fill="none" fill-rule="evenodd">
        <g id="tell-your-story" transform="translate(-1.000000, 0.000000)">
            <path d="M189.34,187 C189.012776,186.999462 188.706517,186.838862 188.52,186.57 C187.77,185.5 186.97,184.44 186.16,183.42 C185.814822,182.986456 185.886456,182.355178 186.32,182.01 C186.753544,181.664822 187.384822,181.736456 187.73,182.17 C188.57,183.22 189.38,184.31 190.16,185.42 C190.377672,185.725711 190.405853,186.12756 190.232978,186.46066 C190.060104,186.793759 189.715282,187.002024 189.34,187 L189.34,187 Z M182.34,178.57 C182.072754,178.568891 181.817071,178.460856 181.63,178.27 C180.72,177.34 179.76,176.43 178.79,175.54 C178.500415,175.307449 178.363567,174.933561 178.434608,174.569016 C178.505649,174.204471 178.772874,173.909327 179.12859,173.802528 C179.484306,173.69573 179.86991,173.794872 180.13,174.06 C181.13,174.97 182.13,175.91 183.05,176.87 C183.364883,177.154701 183.4657,177.607182 183.30147,177.998634 C183.13724,178.390086 182.743759,178.635189 182.32,178.61 L182.34,178.57 Z M174,171.4 C173.78363,171.4 173.573096,171.329822 173.4,171.2 C172.4,170.43 171.3,169.66 170.18,168.9 C169.880355,168.700135 169.711345,168.354571 169.737544,167.995341 C169.763744,167.636111 169.981105,167.318725 170.306577,167.164452 C170.63205,167.010178 171.015341,167.042856 171.31,167.25 C172.45,168.02 173.55,168.81 174.6,169.6 C174.944344,169.858258 175.084797,170.307886 174.948683,170.716228 C174.812569,171.12457 174.43043,171.4 174,171.4 L174,171.4 Z M164.83,165.34 C164.650517,165.339947 164.474356,165.291589 164.32,165.2 C163.173333,164.533333 162.023333,163.866667 160.87,163.2 C160.386751,162.923858 160.218858,162.308249 160.495,161.825 C160.771142,161.341751 161.386751,161.173858 161.87,161.45 C163.03,162.116667 164.193333,162.783333 165.36,163.45 C165.777519,163.663182 165.990902,164.137792 165.873252,164.591584 C165.755602,165.045376 165.338504,165.356527 164.87,165.34 L164.83,165.34 Z M155.24,160 C155.075859,159.99918 154.914444,159.957967 154.77,159.88 L151.23,158 C150.741228,157.740426 150.555426,157.133772 150.815,156.645 C151.074574,156.156228 151.681228,155.970426 152.17,156.23 L155.71,158.1 C156.136034,158.30558 156.359739,158.781557 156.246148,159.240758 C156.132556,159.699958 155.712745,160.016749 155.24,160 L155.24,160 Z M145.56,154.77 C145.384824,154.77121 145.212403,154.72638 145.06,154.64 C143.8,153.92 142.67,153.24 141.59,152.57 C141.120558,152.277289 140.977289,151.659442 141.27,151.19 C141.562711,150.720558 142.180558,150.577289 142.65,150.87 C143.7,151.53 144.82,152.19 146.05,152.87 C146.536106,153.043219 146.810573,153.557883 146.683585,154.05806 C146.556597,154.558238 146.069863,154.879644 145.56,154.8 L145.56,154.77 Z M136.39,148.77 C136.165626,148.77154 135.947254,148.697575 135.77,148.56 C134.67,147.7 133.63,146.8 132.67,145.91 C132.266832,145.531685 132.246685,144.898168 132.625,144.495 C133.003315,144.091832 133.636832,144.071685 134.04,144.45 C134.96,145.3 135.96,146.16 137.04,146.99 C137.358212,147.262123 137.473204,147.703677 137.328147,148.096446 C137.18309,148.489216 136.8087,148.750032 136.39,148.75 L136.39,148.77 Z M128.71,141 C128.389946,141.00083 128.088831,140.848414 127.9,140.59 C127.090374,139.487695 126.345775,138.339075 125.67,137.15 C125.393858,136.669512 125.559512,136.056142 126.04,135.78 C126.520488,135.503858 127.133858,135.669512 127.41,136.15 C128.046084,137.273321 128.74728,138.358505 129.51,139.4 C129.737263,139.703018 129.773819,140.10843 129.604427,140.447214 C129.435035,140.785998 129.088772,141 128.71,141 L128.71,141 Z M123.71,131.28 C123.277426,131.279681 122.894098,131.001264 122.76,130.59 C122.34,129.33 121.98,128.01 121.67,126.66 C121.591402,126.302734 121.709373,125.930676 121.979474,125.683975 C122.249576,125.437274 122.630774,125.35341 122.979474,125.463975 C123.328175,125.574539 123.591402,125.862734 123.67,126.22 C123.96,127.51 124.31,128.77 124.67,129.97 C124.757658,130.270485 124.699563,130.59468 124.513016,130.846027 C124.326469,131.097375 124.032994,131.246874 123.72,131.25 L123.71,131.28 Z" id="Shape" fill="#87A6BC"></path>
            <path d="M288.5,193 C288.102961,192.998727 287.744282,192.762681 287.586051,192.398532 C287.427819,192.034382 287.50001,191.611114 287.77,191.32 C288.7,190.32 289.68,189.32 290.67,188.47 C291.082704,188.138578 291.682185,188.186157 292.037443,188.578532 C292.3927,188.970906 292.38067,189.572151 292.01,189.95 C291.01,190.81 290.12,191.73 289.23,192.69 C289.039796,192.889534 288.77566,193.001702 288.5,193 L288.5,193 Z M296.85,185.92 C296.411443,185.916615 296.02627,185.627868 295.900037,185.207858 C295.773804,184.787848 295.935974,184.334599 296.3,184.09 C297.42,183.35 298.59,182.64 299.79,181.98 C300.273249,181.703858 300.888858,181.871751 301.165,182.355 C301.441142,182.838249 301.273249,183.453858 300.79,183.73 C299.65,184.36 298.52,185.04 297.45,185.73 C297.275662,185.856259 297.065237,185.922894 296.85,185.92 L296.85,185.92 Z M306.6,180.92 C306.121265,180.916415 305.71223,180.574025 305.624444,180.103394 C305.536658,179.632762 305.79475,179.165935 306.24,178.99 C307.48,178.52 308.77,178.07 310.09,177.67 C310.6039,177.548304 311.123842,177.847196 311.277292,178.352524 C311.430742,178.857852 311.164796,179.395391 310.67,179.58 C309.4,179.97 308.15,180.4 306.95,180.85 C306.839115,180.897563 306.720538,180.924666 306.6,180.93 L306.6,180.92 Z M317.17,177.92 C316.617715,177.972467 316.127467,177.567285 316.075,177.015 C316.022533,176.462715 316.427715,175.972467 316.98,175.92 C318.26,175.67 319.6,175.44 320.98,175.24 C321.532285,175.159919 322.044919,175.542715 322.125,176.095 C322.205081,176.647285 321.822285,177.159919 321.27,177.24 C319.93,177.44 318.62,177.66 317.38,177.91 L317.17,177.92 Z M328.07,176.46 C327.517715,176.482091 327.052091,176.052285 327.03,175.5 C327.007909,174.947715 327.437715,174.482091 327.99,174.46 C329.323333,174.346667 330.656667,174.253333 331.99,174.18 C332.347266,174.16035 332.687876,174.332792 332.883525,174.632369 C333.079175,174.931945 333.100141,175.313143 332.938525,175.632369 C332.77691,175.951594 332.457266,176.16035 332.1,176.18 C330.766667,176.253333 329.433333,176.343333 328.1,176.45 L328.02,176.45 L328.07,176.46 Z M339.07,175.91 C338.517715,175.91 338.07,175.462285 338.07,174.91 C338.07,174.357715 338.517715,173.91 339.07,173.91 L343.07,173.82 L343.07,173.82 C343.622285,173.82 344.07,174.267715 344.07,174.82 C344.07,175.372285 343.622285,175.82 343.07,175.82 L339.07,175.91 L339.07,175.91 L339.07,175.91 Z M350.07,175.67 C349.517715,175.67 349.07,175.222285 349.07,174.67 C349.07,174.117715 349.517715,173.67 350.07,173.67 C351.403333,173.636667 352.736667,173.59 354.07,173.53 C354.622285,173.505147 355.090147,173.932715 355.115,174.485 C355.139853,175.037285 354.712285,175.505147 354.16,175.53 C352.826667,175.583333 351.493333,175.63 350.16,175.67 L350.16,175.67 L350.07,175.67 Z M361.07,175.07 C360.517715,175.097614 360.047614,174.672285 360.02,174.12 C359.992386,173.567715 360.417715,173.097614 360.97,173.07 C362.35,172.94 363.67,172.78 364.89,172.6 C365.442285,172.519919 365.954919,172.902715 366.035,173.455 C366.115081,174.007285 365.732285,174.519919 365.18,174.6 C363.92,174.79 362.57,174.95 361.18,175.08 L361.08,175.08 L361.07,175.07 Z M371.88,173.15 C371.327715,173.224558 370.819559,172.837285 370.745,172.285 C370.670442,171.732715 371.057715,171.224558 371.61,171.15 C372.854854,170.795513 374.079926,170.374916 375.28,169.89 C375.781026,169.721804 376.326427,169.972516 376.524988,170.462302 C376.72355,170.952088 376.506707,171.511818 376.03,171.74 C374.761304,172.252192 373.466121,172.69616 372.15,173.07 C372.065857,173.11966 371.97489,173.15672 371.88,173.18 L371.88,173.15 Z M381.76,168.51 C381.325806,168.511554 380.940223,168.232742 380.805658,167.819924 C380.671093,167.407106 380.818298,166.954622 381.17,166.7 C382.197818,165.951587 383.164223,165.122284 384.06,164.22 C384.449361,163.827878 385.082878,163.825639 385.475,164.215 C385.867122,164.604361 385.869361,165.237878 385.48,165.63 C384.506663,166.608881 383.456654,167.508411 382.34,168.32 C382.172155,168.454954 381.965226,168.532114 381.75,168.54 L381.76,168.51 Z" id="Shape" fill="#87A6BC"></path>
            <path d="M96.13,77 C92.79,68.31 92.69,60.25 95.91,59 C87.2146287,62.3444547 82.8764268,72.1042897 86.22,80.8 C89.56,89.49 105.59,98.75 110.47,96.87 C108.66,97.57 99.47,85.69 96.13,77 L96.13,77 Z" id="Shape" fill="#29B78A"></path>
            <path d="M117.71,68.69 C114.365545,59.9946287 104.60571,55.6564268 95.91,59 C99.13,57.76 104.46,63.8 107.8,72.5 C111.14,81.2 112.8,95.99 110.47,96.87 C116.64,94.5 121,77.39 117.71,68.69 L117.71,68.69 Z" id="Shape" fill="#29B78A"></path>
            <path d="M110.53,119 C110.117707,118.998782 109.748424,118.744652 109.6,118.36 L105.47,107.62 C105.272815,107.106415 105.527507,106.530007 106.04,106.33 L120.53,100.76 C121.043585,100.562815 121.619993,100.817507 121.82,101.33 L126,112.05 C126.197185,112.563585 125.942493,113.139993 125.43,113.34 L110.94,118.91 C110.81124,118.968669 110.671495,118.999345 110.53,119 L110.53,119 Z M107.69,107.83 L111.1,116.71 L123.72,111.86 L120.31,103 L107.69,107.83 Z" id="Shape" fill="#374555"></path>
            <path d="M108.61,107.39 C108.091035,107.392106 107.656703,106.996864 107.61,106.48 L106.81,98.06 C106.780965,97.6223881 107.040461,97.2169245 107.45,97.06 L113.26,94.82 C113.67916,94.66036 114.15334,94.7993438 114.42,95.16 L119.47,101.95 C119.65674,102.200476 119.715684,102.523834 119.629336,102.82409 C119.542988,103.124346 119.321271,103.366992 119.03,103.48 L109,107.32 C108.87597,107.369113 108.743368,107.392913 108.61,107.39 L108.61,107.39 Z M108.88,98.63 L109.48,104.98 L117.09,102.05 L113.28,96.93 L108.88,98.63 Z" id="Shape" fill="#374555"></path>
            <path d="M108.91,98.12 C105.59,98.12 100.91,95.97 97.24,93.65 C91.34,89.94 86.87,85.27 85.24,81.16 C82.7960054,75.169379 83.7809846,68.325607 87.815172,63.2673482 C91.8493593,58.2090894 98.3025815,55.7264855 104.686754,56.7767217 C111.070926,57.826958 116.388787,62.2459789 118.59,68.33 C120.21,72.53 120.2,79.07 118.59,85.4 C116.91,91.94 114,96.57 110.8,97.8 C110.194403,98.0195813 109.554127,98.1279877 108.91,98.12 L108.91,98.12 Z M102,58.87 C96.7632125,58.8606821 91.8585134,61.4337823 88.8898514,65.7478379 C85.9211893,70.0618936 85.2702854,75.5621883 87.15,80.45 C88.58,84.17 92.75,88.45 98.3,91.96 C103.3,95.07 108.11,96.71 110.11,95.96 C112.63,94.96 115.21,90.66 116.68,84.96 C118.21,79.02 118.24,72.96 116.76,69.11 C114.424307,62.9780214 108.561629,58.9106893 102,58.87 L102,58.87 Z" id="Shape" fill="#374555"></path>
            <path d="M110.33,97.91 C109.45,97.91 107.51,97.04 103.07,91.05 C99.878665,86.8322155 97.2311709,82.2293387 95.19,77.35 C93.6238448,73.4835833 92.7309557,69.3776463 92.55,65.21 C92.55,61.36 93.55,58.83 95.55,58.07 C97.55,57.31 100.02,58.48 102.55,61.36 C105.206315,64.575221 107.293074,68.2211307 108.72,72.14 C110.495464,77.1025486 111.673757,82.2588402 112.23,87.5 C113.23,96.86 111.42,97.56 110.82,97.8 C110.66545,97.8684123 110.498962,97.9057871 110.33,97.91 L110.33,97.91 Z M96.8,59.85 C96.6159863,59.8463914 96.4328966,59.8769063 96.26,59.94 C95.15,60.37 94.51,62.33 94.55,65.19 C94.729518,69.1183891 95.5783786,72.9872996 97.06,76.63 C100.31,85.09 108.06,94.79 110.14,95.82 C111.14,93.82 110.22,81.57 106.87,72.82 C105.526247,69.1240441 103.561353,65.6846327 101.06,62.65 C99.45,60.86 97.91,59.85 96.8,59.85 L96.8,59.85 Z" id="Shape" fill="#374555"></path>
            <path d="M134.35,61 L122.19,61 C121.637715,61 121.19,60.5522847 121.19,60 C121.19,59.4477153 121.637715,59 122.19,59 L134.34,59 C134.892285,58.9972386 135.342239,59.4427153 135.345,59.995 C135.347761,60.5472847 134.902285,60.9972385 134.35,61 L134.35,61 Z" id="Shape" fill="#374555"></path>
            <path d="M142.26,68 L130.11,68 C129.557715,68 129.11,67.5522847 129.11,67 C129.11,66.4477153 129.557715,66 130.11,66 L142.26,66 C142.812285,66 143.26,66.4477153 143.26,67 C143.26,67.5522847 142.812285,68 142.26,68 L142.26,68 Z" id="Shape" fill="#374555"></path>
            <path d="M137,73.29 L124.83,73.29 C124.277715,73.29 123.83,72.8422847 123.83,72.29 C123.83,71.7377153 124.277715,71.29 124.83,71.29 L137,71.29 C137.552285,71.29 138,71.7377153 138,72.29 C138,72.8422847 137.552285,73.29 137,73.29 L137,73.29 Z" id="Shape" fill="#374555"></path>
            <path d="M389.58,89.33 L377.48,89.33 C374.95,93.14 373.69,99.67 373.69,107.09 C373.69,114.31 374.88,120.69 377.28,124.53 L418,124.53 C415.6,120.68 414.41,114.31 414.41,107.09 C414.41,99.66 415.67,93.09 418.2,89.33 L389.58,89.33" id="Shape" fill="#C74035"></path>
            <path d="M397.29,125 C396.921406,124.999016 396.583238,124.795347 396.41,124.47 C394.28,120.47 393.06,114.15 393.06,107.05 C393.06,99.17 394.43,92.71 396.93,88.86 C397.244802,88.3988422 397.873842,88.2801977 398.335,88.595 C398.796158,88.9098023 398.914802,89.5388422 398.6,90 C396.31,93.53 395.05,99.6 395.05,107.1 C395.05,113.79 396.21,119.95 398.16,123.58 C398.300824,123.883681 398.280361,124.237682 398.105484,124.523114 C397.930607,124.808545 397.624512,124.987546 397.29,125 L397.29,125 Z" id="Shape" fill="#374555"></path>
            <path d="M387.1,125 C386.731406,124.999016 386.393238,124.795347 386.22,124.47 C384.09,120.47 382.87,114.16 382.87,107.05 C382.87,99.17 384.24,92.71 386.74,88.86 C387.054802,88.3960808 387.686081,88.2751977 388.15,88.59 C388.613919,88.9048023 388.734802,89.5360808 388.42,90 C386.13,93.52 384.87,99.6 384.87,107.1 C384.87,113.89 386,119.89 387.98,123.58 C388.121426,123.885259 388.099878,124.241173 387.922659,124.527141 C387.74544,124.813109 387.436303,124.990798 387.1,125 L387.1,125 Z" id="Shape" fill="#374555"></path>
            <rect id="Rectangle-path" fill="#374555" x="377.27" y="123.53" width="12.56" height="2"></rect>
            <path d="M418,125.53 L389.8,125.53 C389.247715,125.53 388.8,125.082285 388.8,124.53 C388.8,123.977715 389.247715,123.53 389.8,123.53 L416.31,123.53 C414.43,119.61 413.4,113.86 413.4,107.09 C413.4,100.09 414.48,94.25 416.46,90.33 L389.58,90.33 C389.027715,90.33 388.58,89.8822847 388.58,89.33 C388.58,88.7777153 389.027715,88.33 389.58,88.33 L418.23,88.33 C418.596857,88.3318915 418.933226,88.5345104 419.106409,88.8579231 C419.279591,89.1813359 419.261779,89.5736128 419.06,89.88 C416.76,93.34 415.44,99.61 415.44,107.09 C415.44,114.57 416.66,120.45 418.88,124 C419.075992,124.313157 419.083365,124.70886 418.899174,125.0291 C418.714984,125.349341 418.369239,125.541943 418,125.53 L418,125.53 Z" id="Shape" fill="#374555"></path>
            <path d="M377.27,125.53 C376.924499,125.530691 376.603115,125.352985 376.42,125.06 C374.01,121.19 372.68,114.81 372.68,107.06 C372.68,99.06 374.09,92.58 376.68,88.74 C376.868555,88.4210535 377.218006,88.2325034 377.588105,88.2500217 C377.958204,88.2675401 378.288282,88.4882553 378.445868,88.8235861 C378.603454,89.1589169 378.562714,89.5538947 378.34,89.85 C376.04,93.31 374.72,99.58 374.72,107.06 C374.72,114.54 375.94,120.42 378.16,123.97 C378.374498,124.285712 378.390572,124.69599 378.201433,125.027516 C378.012293,125.359042 377.65093,125.553988 377.27,125.53 L377.27,125.53 Z" id="Shape" fill="#000000"></path>
            <path d="M376.42,125.06 C374.01,121.19 372.68,114.81 372.68,107.06 C372.68,99.06 374.09,92.58 376.68,88.74 L376.98,88.29 L389.62,88.29 L389.62,90.29 L378,90.29 C375.87,93.83 374.66,99.89 374.66,107.05 C374.66,114.4 375.88,120.41 378.1,123.96 L376.42,125.06 Z" id="Shape" fill="#374555"></path>
            <path d="M417.18,125.06 C414.77,121.19 413.44,114.81 413.44,107.06 C413.44,99.06 414.85,92.58 417.44,88.74 L419.1,89.85 C416.8,93.31 415.48,99.58 415.48,107.06 C415.48,114.54 416.7,120.42 418.92,123.97 L417.18,125.06 Z" id="Shape" fill="#374555"></path>
            <path d="M398.4,85 C397.923275,85.0038901 397.510093,84.6707078 397.41286,84.2039875 C397.315626,83.7372673 397.561382,83.2668064 398,83.08 L404.86,80.08 L397.51,77.82 C397.158473,77.7231753 396.887508,77.4426962 396.802867,77.0880382 C396.718227,76.7333803 396.833328,76.3607649 397.103245,76.1156299 C397.373162,75.870495 397.755107,75.7917 398.1,75.91 L408,79 C408.398612,79.1229542 408.679026,79.4804274 408.703522,79.8968516 C408.728018,80.3132759 408.491448,80.7011599 408.11,80.87 L398.78,84.94 C398.658411,84.984406 398.529356,85.004783 398.4,85 L398.4,85 Z" id="Shape" fill="#374555"></path>
            <path d="M397.72,89.92 C397.167715,89.92 396.72,89.4722847 396.72,88.92 L396.72,76.92 C396.72,76.3677153 397.167715,75.92 397.72,75.92 C398.272285,75.92 398.72,76.3677153 398.72,76.92 L398.72,88.92 C398.72,89.4722847 398.272285,89.92 397.72,89.92 L397.72,89.92 Z" id="Shape" fill="#374555"></path>
            <path d="M397.72,137.26 C397.167715,137.26 396.72,136.812285 396.72,136.26 L396.72,124.8 C396.72,124.247715 397.167715,123.8 397.72,123.8 C398.272285,123.8 398.72,124.247715 398.72,124.8 L398.72,136.25 C398.72267,136.516945 398.618492,136.773875 398.430666,136.96358 C398.242839,137.153285 397.986958,137.260013 397.72,137.26 L397.72,137.26 Z" id="Shape" fill="#374555"></path>
            <path d="M402.9,141.58 C399.586292,141.58 396.9,138.893708 396.9,135.58 C396.9,132.266292 399.586292,129.58 402.9,129.58 C406.213708,129.58 408.9,132.266292 408.9,135.58 C408.9,138.893708 406.213708,141.58 402.9,141.58 L402.9,141.58 Z M402.9,131.58 C400.690861,131.58 398.9,133.370861 398.9,135.58 C398.9,137.789139 400.690861,139.58 402.9,139.58 C405.109139,139.58 406.9,137.789139 406.9,135.58 C406.902657,134.517402 406.482402,133.497416 405.731969,132.745106 C404.981535,131.992796 403.962601,131.569997 402.9,131.57 L402.9,131.58 Z" id="Shape" fill="#374555"></path>
            <path d="M413,141.58 C409.686292,141.58 407,138.893708 407,135.58 C407,132.266292 409.686292,129.58 413,129.58 C416.313708,129.58 419,132.266292 419,135.58 C419,138.893708 416.313708,141.58 413,141.58 L413,141.58 Z M413,131.58 C410.790861,131.58 409,133.370861 409,135.58 C409,137.789139 410.790861,139.58 413,139.58 C415.209139,139.58 417,137.789139 417,135.58 C417.002657,134.517402 416.582402,133.497416 415.831969,132.745106 C415.081535,131.992796 414.062601,131.569997 413,131.57 L413,131.58 Z" id="Shape" fill="#374555"></path>
            <path d="M392.63,141.58 C389.316292,141.58 386.63,138.893708 386.63,135.58 C386.63,132.266292 389.316292,129.58 392.63,129.58 C395.943708,129.58 398.63,132.266292 398.63,135.58 C398.63,138.893708 395.943708,141.58 392.63,141.58 L392.63,141.58 Z M392.63,131.58 C390.420861,131.58 388.63,133.370861 388.63,135.58 C388.63,137.789139 390.420861,139.58 392.63,139.58 C394.839139,139.58 396.63,137.789139 396.63,135.58 C396.632657,134.517402 396.212402,133.497416 395.461969,132.745106 C394.711535,131.992796 393.692601,131.569997 392.63,131.57 L392.63,131.58 Z" id="Shape" fill="#374555"></path>
            <path d="M382.62,141.58 C379.306292,141.58 376.62,138.893708 376.62,135.58 C376.62,132.266292 379.306292,129.58 382.62,129.58 C385.933708,129.58 388.62,132.266292 388.62,135.58 C388.62,138.893708 385.933708,141.58 382.62,141.58 L382.62,141.58 Z M382.62,131.58 C380.410861,131.58 378.62,133.370861 378.62,135.58 C378.62,137.789139 380.410861,139.58 382.62,139.58 C384.829139,139.58 386.62,137.789139 386.62,135.58 C386.622657,134.517402 386.202402,133.497416 385.451969,132.745106 C384.701535,131.992796 383.682601,131.569997 382.62,131.57 L382.62,131.58 Z" id="Shape" fill="#374555"></path>
            <path d="M407.48,125 C407.111406,124.999016 406.773238,124.795347 406.6,124.47 C404.47,120.47 403.25,114.15 403.25,107.05 C403.25,99.17 404.62,92.71 407.12,88.86 C407.434802,88.3988422 408.063842,88.2801977 408.525,88.595 C408.986158,88.9098023 409.104802,89.5388422 408.79,90 C406.5,93.53 405.24,99.6 405.24,107.1 C405.24,113.79 406.4,119.95 408.35,123.58 C408.490824,123.883681 408.470361,124.237682 408.295484,124.523114 C408.120607,124.808545 407.814512,124.987546 407.48,125 L407.48,125 Z" id="Shape" fill="#374555"></path>
            <path d="M379.75,102.58 C374.968502,102.592029 370.38557,104.493496 367,107.87 L367,95.44 C367.016465,90.3879076 371.107908,86.2964654 376.16,86.28 L419.61,86.28 C424.662092,86.2964654 428.753535,90.3879076 428.77,95.44 L428.77,107.87 C425.379518,104.488618 420.78843,102.58675 416,102.58 L379.75,102.58 L379.75,102.58 Z" id="Shape"></path>
            <path d="M367,128.86 C366.447715,128.86 366,128.412285 366,127.86 L366,118.73 L362.12,120.73 C361.802034,120.894342 361.420545,120.876568 361.119237,120.683372 C360.81793,120.490176 360.642579,120.15091 360.659237,119.793372 C360.675896,119.435834 360.882034,119.114342 361.2,118.95 L366.54,116.18 C366.85033,116.019228 367.222079,116.032141 367.520506,116.214058 C367.818932,116.395976 368.000728,116.720498 368,117.07 L368,127.85 C368.00267,128.116945 367.898492,128.373875 367.710666,128.56358 C367.522839,128.753285 367.266958,128.860013 367,128.86 L367,128.86 Z" id="Shape" fill="#374555"></path>
            <path d="M416,153.46 L379.75,153.46 C369.161748,153.448976 360.581024,144.868252 360.57,134.28 L360.57,127.86 C360.57,127.307715 361.017715,126.86 361.57,126.86 C362.122285,126.86 362.57,127.307715 362.57,127.86 L362.57,134.28 C362.581021,143.763683 370.266317,151.448979 379.75,151.46 L416,151.46 C425.483683,151.448979 433.168979,143.763683 433.18,134.28 L433.18,127.86 C433.18,127.307715 433.627715,126.86 434.18,126.86 C434.732285,126.86 435.18,127.307715 435.18,127.86 L435.18,134.28 C435.168976,144.868252 426.588252,153.448976 416,153.46 L416,153.46 Z" id="Shape" fill="#374555"></path>
            <path d="M428.77,128.86 C428.217715,128.86 427.77,128.412285 427.77,127.86 L427.77,123.19 C427.77,122.637715 428.217715,122.19 428.77,122.19 L434.14,122.19 C434.497266,122.19 434.827393,122.380599 435.006026,122.69 C435.184658,122.999401 435.184658,123.380599 435.006026,123.69 C434.827393,123.999401 434.497266,124.19 434.14,124.19 L429.77,124.19 L429.77,127.86 C429.77,128.125216 429.664643,128.37957 429.477107,128.567107 C429.28957,128.754643 429.035216,128.86 428.77,128.86 L428.77,128.86 Z" id="Shape" fill="#374555"></path>
            <path d="M418.56,137.16 C418.007715,137.16 417.56,136.712285 417.56,136.16 C417.56,135.607715 418.007715,135.16 418.56,135.16 C422.89,135.16 427.74,131.67 427.74,127 C427.74,126.447715 428.187715,126 428.74,126 C429.292285,126 429.74,126.447715 429.74,127 C429.74,132.81 423.84,137.16 418.56,137.16 L418.56,137.16 Z" id="Shape" fill="#374555"></path>
            <path d="M377.15,137.16 C371.87,137.16 365.97,132.81 365.97,127 C365.97,126.447715 366.417715,126 366.97,126 C367.522285,126 367.97,126.447715 367.97,127 C367.97,131.67 372.82,135.16 377.15,135.16 C377.702285,135.16 378.15,135.607715 378.15,136.16 C378.15,136.712285 377.702285,137.16 377.15,137.16 L377.15,137.16 Z" id="Shape" fill="#374555"></path>
            <path d="M440.56,128.86 L434.14,128.86 C433.587715,128.86 433.14,128.412285 433.14,127.86 C433.14,127.307715 433.587715,126.86 434.14,126.86 L439.56,126.86 L439.56,124.19 L434.14,124.19 C433.587715,124.19 433.14,123.742285 433.14,123.19 C433.14,122.637715 433.587715,122.19 434.14,122.19 L440.56,122.19 C441.112285,122.19 441.56,122.637715 441.56,123.19 L441.56,127.86 C441.56,128.412285 441.112285,128.86 440.56,128.86 L440.56,128.86 Z" id="Shape" fill="#374555"></path>
            <path d="M361.57,128.86 L355.16,128.86 C354.607715,128.86 354.16,128.412285 354.16,127.86 L354.16,123.19 C354.159221,122.815643 354.3676,122.472204 354.7,122.3 L361.15,118.95 C361.641533,118.695949 362.245949,118.888467 362.5,119.38 C362.754051,119.871533 362.561533,120.475949 362.07,120.73 L356.16,123.8 L356.16,126.86 L361.57,126.86 C362.122285,126.86 362.57,127.307715 362.57,127.86 C362.57,128.412285 362.122285,128.86 361.57,128.86 L361.57,128.86 Z" id="Shape" fill="#374555"></path>
            <path d="M371,124.45 L364.3,124.45 C363.747715,124.45 363.3,124.002285 363.3,123.45 C363.3,122.897715 363.747715,122.45 364.3,122.45 L370,122.45 L370,119.12 C370,118.567715 370.447715,118.12 371,118.12 C371.552285,118.12 372,118.567715 372,119.12 L372,123.45 C372,124.002285 371.552285,124.45 371,124.45 L371,124.45 Z" id="Shape" fill="#374555"></path>
            <path d="M430.47,146.17 L423.68,146.17 C423.127715,146.17 422.68,145.722285 422.68,145.17 C422.68,144.617715 423.127715,144.17 423.68,144.17 L430.47,144.17 C431.022285,144.17 431.47,144.617715 431.47,145.17 C431.47,145.722285 431.022285,146.17 430.47,146.17 L430.47,146.17 Z" id="Shape" fill="#374555"></path>
            <path d="M382.88,146.17 L374.06,146.17 C373.507715,146.17 373.06,145.722285 373.06,145.17 C373.06,144.617715 373.507715,144.17 374.06,144.17 L382.88,144.17 C383.432285,144.17 383.88,144.617715 383.88,145.17 C383.88,145.722285 383.432285,146.17 382.88,146.17 L382.88,146.17 Z" id="Shape" fill="#374555"></path>
            <path d="M371.67,140.05 L362.85,140.05 C362.297715,140.05 361.85,139.602285 361.85,139.05 C361.85,138.497715 362.297715,138.05 362.85,138.05 L371.67,138.05 C372.222285,138.05 372.67,138.497715 372.67,139.05 C372.67,139.602285 372.222285,140.05 371.67,140.05 L371.67,140.05 Z" id="Shape" fill="#374555"></path>
            <path d="M417.74,146.17 L414,146.17 C413.447715,146.17 413,145.722285 413,145.17 C413,144.617715 413.447715,144.17 414,144.17 L417.73,144.17 C418.282285,144.167239 418.732239,144.612715 418.735,145.165 C418.737761,145.717285 418.292285,146.167239 417.74,146.17 L417.74,146.17 Z" id="Shape" fill="#374555"></path>
            <path d="M444.83,162.11 C442.186838,162.104499 440.045501,159.963162 440.04,157.32 C440.04,156.767715 440.487715,156.32 441.04,156.32 C441.592285,156.32 442.04,156.767715 442.04,157.32 C442.04,158.863636 443.291364,160.115 444.835,160.115 C446.378636,160.115 447.63,158.863636 447.63,157.32 C447.63,156.767715 448.077715,156.32 448.63,156.32 C449.182285,156.32 449.63,156.767715 449.63,157.32 C449.624485,159.967061 447.477066,162.110006 444.83,162.11 L444.83,162.11 Z" id="Shape" fill="#374555"></path>
            <path d="M437.35,162.1 C434.706838,162.094499 432.565501,159.953162 432.56,157.31 C432.56,156.757715 433.007715,156.31 433.56,156.31 C434.112285,156.31 434.56,156.757715 434.56,157.31 C434.56,158.853636 435.811364,160.105 437.355,160.105 C438.898636,160.105 440.15,158.853636 440.15,157.31 C440.15,156.757715 440.597715,156.31 441.15,156.31 C441.702285,156.31 442.15,156.757715 442.15,157.31 C442.144485,159.957061 439.997066,162.100006 437.35,162.1 L437.35,162.1 Z" id="Shape" fill="#374555"></path>
            <path d="M429.76,162.1 C427.116838,162.094499 424.975501,159.953162 424.97,157.31 C424.97,156.757715 425.417715,156.31 425.97,156.31 C426.522285,156.31 426.97,156.757715 426.97,157.31 C426.97,158.853636 428.221364,160.105 429.765,160.105 C431.308636,160.105 432.56,158.853636 432.56,157.31 C432.56,156.757715 433.007715,156.31 433.56,156.31 C434.112285,156.31 434.56,156.757715 434.56,157.31 C434.554485,159.957061 432.407066,162.100006 429.76,162.1 L429.76,162.1 Z" id="Shape" fill="#374555"></path>
            <path d="M422.18,162.1 C419.536838,162.094499 417.395501,159.953162 417.39,157.31 C417.39,156.757715 417.837715,156.31 418.39,156.31 C418.942285,156.31 419.39,156.757715 419.39,157.31 C419.39,158.853636 420.641364,160.105 422.185,160.105 C423.728636,160.105 424.98,158.853636 424.98,157.31 C424.98,156.757715 425.427715,156.31 425.98,156.31 C426.532285,156.31 426.98,156.757715 426.98,157.31 C426.974485,159.957061 424.827066,162.100006 422.18,162.1 L422.18,162.1 Z" id="Shape" fill="#374555"></path>
            <path d="M414.7,162.1 C412.056838,162.094499 409.915501,159.953162 409.91,157.31 C409.91,156.757715 410.357715,156.31 410.91,156.31 C411.462285,156.31 411.91,156.757715 411.91,157.31 C411.91,158.853636 413.161364,160.105 414.705,160.105 C416.248636,160.105 417.5,158.853636 417.5,157.31 C417.5,156.757715 417.947715,156.31 418.5,156.31 C419.052285,156.31 419.5,156.757715 419.5,157.31 C419.494485,159.957061 417.347066,162.100006 414.7,162.1 L414.7,162.1 Z" id="Shape" fill="#374555"></path>
            <path d="M407,162.1 C404.356838,162.094499 402.215501,159.953162 402.21,157.31 C402.21,156.757715 402.657715,156.31 403.21,156.31 C403.762285,156.31 404.21,156.757715 404.21,157.31 C404.21,158.853636 405.461364,160.105 407.005,160.105 C408.548636,160.105 409.8,158.853636 409.8,157.31 C409.8,156.757715 410.247715,156.31 410.8,156.31 C411.352285,156.31 411.8,156.757715 411.8,157.31 C411.794485,159.957061 409.647066,162.100006 407,162.1 L407,162.1 Z" id="Shape" fill="#374555"></path>
            <path d="M399.53,162.1 C396.886838,162.094499 394.745501,159.953162 394.74,157.31 C394.74,156.757715 395.187715,156.31 395.74,156.31 C396.292285,156.31 396.74,156.757715 396.74,157.31 C396.74,158.853636 397.991364,160.105 399.535,160.105 C401.078636,160.105 402.33,158.853636 402.33,157.31 C402.33,156.757715 402.777715,156.31 403.33,156.31 C403.882285,156.31 404.33,156.757715 404.33,157.31 C404.324485,159.957061 402.177066,162.100006 399.53,162.1 L399.53,162.1 Z" id="Shape" fill="#374555"></path>
            <path d="M374.81,162.11 C372.166838,162.104499 370.025501,159.963162 370.02,157.32 C370.02,156.767715 370.467715,156.32 371.02,156.32 C371.572285,156.32 372.02,156.767715 372.02,157.32 C372.02,158.863636 373.271364,160.115 374.815,160.115 C376.358636,160.115 377.61,158.863636 377.61,157.32 C377.61,156.767715 378.057715,156.32 378.61,156.32 C379.162285,156.32 379.61,156.767715 379.61,157.32 C379.604485,159.967061 377.457066,162.110006 374.81,162.11 L374.81,162.11 Z" id="Shape" fill="#374555"></path>
            <path d="M367.33,162.1 C364.686838,162.094499 362.545501,159.953162 362.54,157.31 C362.54,156.757715 362.987715,156.31 363.54,156.31 C364.092285,156.31 364.54,156.757715 364.54,157.31 C364.54,158.853636 365.791364,160.105 367.335,160.105 C368.878636,160.105 370.13,158.853636 370.13,157.31 C370.13,156.757715 370.577715,156.31 371.13,156.31 C371.682285,156.31 372.13,156.757715 372.13,157.31 C372.124485,159.957061 369.977066,162.100006 367.33,162.1 L367.33,162.1 Z" id="Shape" fill="#374555"></path>
            <path d="M359.74,162.1 C357.096838,162.094499 354.955501,159.953162 354.95,157.31 C354.95,156.757715 355.397715,156.31 355.95,156.31 C356.502285,156.31 356.95,156.757715 356.95,157.31 C356.95,158.853636 358.201364,160.105 359.745,160.105 C361.288636,160.105 362.54,158.853636 362.54,157.31 C362.54,156.757715 362.987715,156.31 363.54,156.31 C364.092285,156.31 364.54,156.757715 364.54,157.31 C364.534485,159.957061 362.387066,162.100006 359.74,162.1 L359.74,162.1 Z" id="Shape" fill="#374555"></path>
            <path d="M220.1,62.4 L192.4,62.4 C192.089653,62.4083498 191.793031,62.2720834 191.597184,62.0311918 C191.401337,61.7903002 191.328482,61.4721091 191.4,61.17 L205.28,1.54 C205.383697,1.08499206 205.788325,0.76220486 206.255,0.76220486 C206.721675,0.76220486 207.126303,1.08499206 207.23,1.54 L221.08,61.18 C221.147029,61.4771977 221.074919,61.7887413 220.884123,62.0262626 C220.693327,62.2637838 220.40466,62.4013717 220.1,62.4 L220.1,62.4 Z M193.66,60.4 L218.84,60.4 L206.25,6.19 L193.66,60.4 Z" id="Shape" fill="#374555"></path>
            <path d="M190,82.49 L169.9,82.49 C169.594036,82.4968407 169.301784,82.3632001 169.106822,82.1272959 C168.91186,81.8913917 168.835655,81.5792002 168.9,81.28 L178.9,34.67 C178.9,34.1177153 179.347715,33.67 179.9,33.67 C180.452285,33.67 180.9,34.1177153 180.9,34.67 L190.9,81.28 C190.961575,81.5624879 190.897874,81.8578005 190.725323,82.0897856 C190.552772,82.3217708 190.288261,82.4677209 190,82.49 L190,82.49 Z M171.14,80.49 L188.76,80.49 L179.95,39.63 L171.14,80.49 Z" id="Shape" fill="#374555"></path>
            <path d="M243.83,90.1 L229.16,90.1 C228.856191,90.1061522 228.566066,89.9738298 228.371533,89.7403894 C228.176999,89.5069489 228.099163,89.1977192 228.16,88.9 L235.49,52.61 C235.49,52.0577153 235.937715,51.61 236.49,51.61 C237.042285,51.61 237.49,52.0577153 237.49,52.61 L244.82,88.9 C244.880433,89.1959791 244.80383,89.5034143 244.611588,89.7364351 C244.419346,89.9694559 244.13207,90.1030857 243.83,90.1 L243.83,90.1 Z M230.39,88.1 L242.61,88.1 L236.5,57.85 L230.39,88.1 Z" id="Shape" fill="#374555"></path>
            <path d="M215.38,89 C214.827715,89 214.38,88.5522847 214.38,88 L214.38,62.44 L198.13,62.44 L198.13,87 L201.27,87 C201.822285,87 202.27,87.4477153 202.27,88 C202.27,88.5522847 201.822285,89 201.27,89 L197.13,89 C196.577715,89 196.13,88.5522847 196.13,88 L196.13,61.44 C196.13,60.8877153 196.577715,60.44 197.13,60.44 L215.38,60.44 C215.932285,60.44 216.38,60.8877153 216.38,61.44 L216.38,88 C216.38,88.5522847 215.932285,89 215.38,89 L215.38,89 Z" id="Shape" fill="#374555"></path>
            <path d="M241.47,109.92 L231.47,109.92 C230.917715,109.92 230.47,109.472285 230.47,108.92 L230.47,89.1 C230.47,88.5477153 230.917715,88.1 231.47,88.1 L241.47,88.1 C242.022285,88.1 242.47,88.5477153 242.47,89.1 L242.47,108.92 C242.47,109.472285 242.022285,109.92 241.47,109.92 L241.47,109.92 Z M232.47,107.92 L240.47,107.92 L240.47,90.1 L232.47,90.1 L232.47,107.92 L232.47,107.92 Z" id="Shape" fill="#374555"></path>
            <path d="M172.32,117.19 C171.767715,117.19 171.32,116.742285 171.32,116.19 L171.32,81.61 C171.32,81.0577153 171.767715,80.61 172.32,80.61 L187.51,80.61 C188.062285,80.61 188.51,81.0577153 188.51,81.61 L188.51,104.11 C188.508597,104.414272 188.368737,104.701353 188.13,104.89 L172.94,117 C172.760175,117.130443 172.542034,117.197293 172.32,117.19 L172.32,117.19 Z M173.32,82.61 L173.32,114.11 L186.51,103.62 L186.51,82.62 L173.32,82.62 L173.32,82.61 Z" id="Shape" fill="#374555"></path>
            <path d="M217.74,97.25 C217.187715,97.25 216.74,96.8022847 216.74,96.25 L216.74,89 L210.47,89 L210.47,96.28 C210.47,96.8322847 210.022285,97.28 209.47,97.28 C208.917715,97.28 208.47,96.8322847 208.47,96.28 L208.47,88 C208.47,87.4477153 208.917715,87 209.47,87 L217.74,87 C218.292285,87 218.74,87.4477153 218.74,88 L218.74,96.28 C218.723777,96.8205347 218.280778,97.2502434 217.74,97.25 L217.74,97.25 Z" id="Shape" fill="#374555"></path>
            <path d="M209.46,97.25 L201.27,97.25 C200.717715,97.25 200.27,96.8022847 200.27,96.25 L200.27,88 C200.27,87.4477153 200.717715,87 201.27,87 C201.822285,87 202.27,87.4477153 202.27,88 L202.27,95.28 L208.46,95.28 L208.46,88 C208.46,87.4477153 208.907715,87 209.46,87 C210.012285,87 210.46,87.4477153 210.46,88 L210.46,96.28 C210.443777,96.8205347 210.000778,97.2502434 209.46,97.25 L209.46,97.25 Z" id="Shape" fill="#374555"></path>
            <path d="M209.47,97.25 C208.917715,97.25 208.47,96.8022847 208.47,96.25 L208.47,88 C208.47,87.4477153 208.917715,87 209.47,87 L209.47,87 C210.022285,87 210.47,87.4477153 210.47,88 L210.47,96.28 C210.453777,96.8205347 210.010778,97.2502434 209.47,97.25 L209.47,97.25 Z" id="Shape" fill="#374555"></path>
            <path d="M201.19,97.25 C200.637715,97.25 200.19,96.8022847 200.19,96.25 L200.19,89 L194,89 L194,96.28 C194,96.8322847 193.552285,97.28 193,97.28 C192.447715,97.28 192,96.8322847 192,96.28 L192,88 C192,87.4477153 192.447715,87 193,87 L201.2,87 C201.752285,87 202.2,87.4477153 202.2,88 L202.2,96.28 C202.183689,96.8244401 201.734655,97.2556911 201.19,97.25 L201.19,97.25 Z" id="Shape" fill="#374555"></path>
            <path d="M201.27,97.25 C200.701499,97.2565289 200.227157,96.817323 200.19,96.25 L200.19,88 C200.19,87.4477153 200.637715,87 201.19,87 L201.27,87 C201.822285,87 202.27,87.4477153 202.27,88 L202.27,96.28 C202.253777,96.8205347 201.810778,97.2502434 201.27,97.25 L201.27,97.25 Z" id="Shape" fill="#374555"></path>
            <path d="M192.92,97.25 L187.6,97.25 C187.047715,97.25 186.6,96.8022847 186.6,96.25 C186.6,95.6977153 187.047715,95.25 187.6,95.25 L191.92,95.25 L191.92,88 C191.92,87.4477153 192.367715,87 192.92,87 C193.472285,87 193.92,87.4477153 193.92,88 L193.92,96.28 C193.903777,96.8205347 193.460778,97.2502434 192.92,97.25 L192.92,97.25 Z" id="Shape" fill="#374555"></path>
            <path d="M226,97.25 L217.72,97.25 C217.167715,97.25 216.72,96.8022847 216.72,96.25 L216.72,88 C216.72,87.4477153 217.167715,87 217.72,87 C218.272285,87 218.72,87.4477153 218.72,88 L218.72,95.28 L225,95.28 L225,88 C225,87.4477153 225.447715,87 226,87 C226.552285,87 227,87.4477153 227,88 L227,96.28 C226.983777,96.8205347 226.540778,97.2502434 226,97.25 L226,97.25 Z" id="Shape" fill="#374555"></path>
            <path d="M226,97.25 C225.447715,97.25 225,96.8022847 225,96.25 L225,88 C225,87.4477153 225.447715,87 226,87 L229.38,87 C229.932285,87 230.38,87.4477153 230.38,88 C230.38,88.5522847 229.932285,89 229.38,89 L227,89 L227,96.28 C226.983777,96.8205347 226.540778,97.2502434 226,97.25 L226,97.25 Z" id="Shape" fill="#374555"></path>
            <path d="M169,120 C168.574791,120.001799 168.194944,119.734507 168.053072,119.33366 C167.911199,118.932813 168.03833,118.486085 168.37,118.22 L200.54,92.28 C200.970782,91.9320606 201.602061,91.9992179 201.95,92.43 C202.297939,92.8607821 202.230782,93.4920606 201.8,93.84 L169.63,119.78 C169.451384,119.923304 169.228995,120.000964 169,120 L169,120 Z" id="Shape" fill="#374555"></path>
            <path d="M203.09,76.36 C202.537715,76.36 202.09,75.9122847 202.09,75.36 L202.09,66.36 C202.09,65.8077153 202.537715,65.36 203.09,65.36 C203.642285,65.36 204.09,65.8077153 204.09,66.36 L204.09,75.36 C204.09,75.9122847 203.642285,76.36 203.09,76.36 L203.09,76.36 Z" id="Shape" fill="#374555"></path>
            <path d="M177.37,96.76 C176.817715,96.76 176.37,96.3122847 176.37,95.76 L176.37,86.76 C176.37,86.2077153 176.817715,85.76 177.37,85.76 C177.922285,85.76 178.37,86.2077153 178.37,86.76 L178.37,95.76 C178.37,96.3122847 177.922285,96.76 177.37,96.76 L177.37,96.76 Z" id="Shape" fill="#374555"></path>
            <path d="M182.25,96.76 C181.697715,96.76 181.25,96.3122847 181.25,95.76 L181.25,86.76 C181.25,86.2077153 181.697715,85.76 182.25,85.76 C182.802285,85.76 183.25,86.2077153 183.25,86.76 L183.25,95.76 C183.25,96.3122847 182.802285,96.76 182.25,96.76 L182.25,96.76 Z" id="Shape" fill="#374555"></path>
            <path d="M214,139.11 C213.447715,139.11 213,138.662285 213,138.11 L213,129.11 C213,128.557715 213.447715,128.11 214,128.11 C214.552285,128.11 215,128.557715 215,129.11 L215,138.11 C215,138.662285 214.552285,139.11 214,139.11 L214,139.11 Z" id="Shape" fill="#374555"></path>
            <path d="M218.89,139.11 C218.337715,139.11 217.89,138.662285 217.89,138.11 L217.89,129.11 C217.89,128.557715 218.337715,128.11 218.89,128.11 C219.442285,128.11 219.89,128.557715 219.89,129.11 L219.89,138.11 C219.89,138.662285 219.442285,139.11 218.89,139.11 L218.89,139.11 Z" id="Shape" fill="#374555"></path>
            <path d="M242.78,139.11 C242.227715,139.11 241.78,138.662285 241.78,138.11 L241.78,129.11 C241.78,128.557715 242.227715,128.11 242.78,128.11 C243.332285,128.11 243.78,128.557715 243.78,129.11 L243.78,138.11 C243.78,138.662285 243.332285,139.11 242.78,139.11 L242.78,139.11 Z" id="Shape" fill="#374555"></path>
            <path d="M247.66,139.11 C247.107715,139.11 246.66,138.662285 246.66,138.11 L246.66,129.11 C246.66,128.557715 247.107715,128.11 247.66,128.11 C248.212285,128.11 248.66,128.557715 248.66,129.11 L248.66,138.11 C248.66,138.662285 248.212285,139.11 247.66,139.11 L247.66,139.11 Z" id="Shape" fill="#374555"></path>
            <path d="M209.46,76.36 C208.907715,76.36 208.46,75.9122847 208.46,75.36 L208.46,66.36 C208.46,65.8077153 208.907715,65.36 209.46,65.36 C210.012285,65.36 210.46,65.8077153 210.46,66.36 L210.46,75.36 C210.46,75.9122847 210.012285,76.36 209.46,76.36 L209.46,76.36 Z" id="Shape" fill="#374555"></path>
            <path d="M177.63,152.71 C177.077715,152.71 176.63,152.262285 176.63,151.71 L176.63,112 C176.63,111.447715 177.077715,111 177.63,111 C178.182285,111 178.63,111.447715 178.63,112 L178.63,151.68 C178.638115,151.950375 178.536352,152.212505 178.347928,152.406581 C178.159505,152.600657 177.900497,152.710122 177.63,152.71 L177.63,152.71 Z" id="Shape" fill="#374555"></path>
            <path d="M207.18,153.4 C206.627715,153.4 206.18,152.952285 206.18,152.4 L206.18,121.65 C206.18,121.097715 206.627715,120.65 207.18,120.65 C207.732285,120.65 208.18,121.097715 208.18,121.65 L208.18,152.4 C208.18,152.952285 207.732285,153.4 207.18,153.4 L207.18,153.4 Z" id="Shape" fill="#374555"></path>
            <path d="M254.44,153.4 C253.887715,153.4 253.44,152.952285 253.44,152.4 L253.44,121.65 C253.44,121.097715 253.887715,120.65 254.44,120.65 C254.992285,120.65 255.44,121.097715 255.44,121.65 L255.44,152.4 C255.44,152.952285 254.992285,153.4 254.44,153.4 L254.44,153.4 Z" id="Shape" fill="#374555"></path>
            <polygon id="Shape" fill="#866DAD" points="254.44 121.65 207.3 121.65 198.07 108.92 245.21 108.92"></polygon>
            <path d="M254.44,122.65 L207.3,122.65 C206.979946,122.65083 206.678831,122.498414 206.49,122.24 L197.26,109.5 C197.037568,109.195609 197.005231,108.791993 197.176361,108.456071 C197.347492,108.120148 197.693001,107.90902 198.07,107.91 L245.21,107.91 C245.530054,107.90917 245.831169,108.061586 246.02,108.32 L255.25,121.06 C255.472432,121.364391 255.504769,121.768007 255.333639,122.103929 C255.162508,122.439852 254.816999,122.65098 254.44,122.65 L254.44,122.65 Z M207.81,120.65 L252.48,120.65 L244.7,109.91 L200,109.91 L207.81,120.65 Z" id="Shape" fill="#374555"></path>
            <path d="M243.23,122.57 C242.909946,122.57083 242.608831,122.418414 242.42,122.16 L233.42,109.84 C233.094152,109.392649 233.192649,108.765848 233.64,108.44 C234.087351,108.114152 234.714152,108.212649 235.04,108.66 L244,121 C244.207545,121.298173 244.237055,121.68545 244.077083,122.011627 C243.917111,122.337803 243.592825,122.551563 243.23,122.57 L243.23,122.57 Z" id="Shape" fill="#374555"></path>
            <path d="M230.79,122.65 C230.469946,122.65083 230.168831,122.498414 229.98,122.24 L220.75,109.5 C220.454023,109.052692 220.563652,108.451535 220.998472,108.137499 C221.433291,107.823463 222.038431,107.908397 222.37,108.33 L231.6,121.07 C231.816627,121.374247 231.845653,121.773855 231.675267,122.106213 C231.504881,122.438571 231.163484,122.648279 230.79,122.65 L230.79,122.65 Z" id="Shape" fill="#374555"></path>
            <path d="M218.61,122.65 C218.289946,122.65083 217.988831,122.498414 217.8,122.24 L208.57,109.5 C208.274023,109.052692 208.383652,108.451535 208.818472,108.137499 C209.253291,107.823463 209.858431,107.908397 210.19,108.33 L219.42,121.07 C219.636627,121.374247 219.665653,121.773855 219.495267,122.106213 C219.324881,122.438571 218.983484,122.648279 218.61,122.65 L218.61,122.65 Z" id="Shape" fill="#374555"></path>
            <path d="M188.58,152.71 C188.027715,152.71 187.58,152.262285 187.58,151.71 L187.58,121.65 C187.579246,121.438174 187.645776,121.231579 187.77,121.06 L197,108.33 C197.331569,107.908397 197.936709,107.823463 198.371528,108.137499 C198.806348,108.451535 198.915977,109.052692 198.62,109.5 L189.62,121.97 L189.62,151.71 C189.620218,151.982295 189.509388,152.242904 189.313109,152.431633 C189.11683,152.620363 188.852077,152.720892 188.58,152.71 L188.58,152.71 Z" id="Shape" fill="#374555"></path>
            <path d="M199,157.27 C198.832474,157.270838 198.667422,157.229575 198.52,157.15 L191.24,153.15 L182.37,151.73 L172.54,155 C172.01533,155.17397 171.44897,154.88967 171.275,154.365 C171.10103,153.840329 171.38533,153.27397 171.91,153.1 L181.91,149.76 C182.064442,149.72266 182.225558,149.72266 182.38,149.76 L191.66,151.25 C191.772141,151.268223 191.880356,151.305422 191.98,151.36 L198.98,155.23 L212.67,150.37 C212.859088,150.312702 213.060912,150.312702 213.25,150.37 L219.01,151.86 C219.545716,151.998071 219.868071,152.544284 219.73,153.08 C219.591929,153.615716 219.045716,153.938071 218.51,153.8 L213.05,152.39 L199.23,157.3 C199.152429,157.298955 199.075243,157.288888 199,157.27 L199,157.27 Z" id="Shape" fill="#374555"></path>
            <path d="M249.47,156.35 C249.00916,156.347269 248.609862,156.029954 248.50312,155.581638 C248.396378,155.133322 248.609837,154.670113 249.02,154.46 L258.02,149.86 C258.22732,149.756515 258.464143,149.728238 258.69,149.78 L263,150.78 L266,148.95 C266.422584,148.690439 266.971562,148.779808 267.29,149.16 L271,153.62 C271.353462,154.045259 271.295259,154.676538 270.87,155.03 C270.444741,155.383462 269.813462,155.325259 269.46,154.9 L266.3,151.11 L263.7,152.7 C263.478226,152.834444 263.212895,152.87747 262.96,152.82 L258.6,151.82 L249.89,156.25 C249.758952,156.313518 249.615611,156.347647 249.47,156.35 L249.47,156.35 Z" id="Shape" fill="#374555"></path>
            <path d="M334.72,71.76 C330.29368,68.4093402 324.848115,66.6859708 319.3,66.88 C315.494234,66.9406277 311.729337,67.6753243 308.18,69.05 C310.834377,73.4131615 314.64056,76.9598329 319.18,79.3 L323.93,81 C329.744972,82.2424921 335.805152,81.5870533 341.22,79.13 C339.519844,76.2982787 337.317076,73.8006793 334.72,71.76 L334.72,71.76 Z" id="Shape" fill="#F7CD68"></path>
            <path d="M333.63,77.82 C333.537129,77.8331313 333.442871,77.8331313 333.35,77.82 L332.35,77.54 C331.819807,77.3853603 331.51536,76.8301934 331.67,76.3 C331.82464,75.7698066 332.379807,75.4653603 332.91,75.62 L333.91,75.9 C334.334473,76.0743534 334.585804,76.5152312 334.519584,76.9693143 C334.453364,77.4233974 334.086588,77.7741348 333.63,77.82 L333.63,77.82 Z M325,75.29 C324.907129,75.3031313 324.812871,75.3031313 324.72,75.29 L323.72,75.01 C323.377025,74.9099656 323.113471,74.6345551 323.028616,74.2875129 C322.94376,73.9404707 323.050496,73.5745207 323.308616,73.3275129 C323.566735,73.080505 323.937025,72.9899656 324.28,73.09 L325.28,73.37 C325.704473,73.5443534 325.955804,73.9852312 325.889584,74.4393143 C325.823364,74.8933974 325.456588,75.2441348 325,75.29 L325,75.29 Z M316.36,72.76 C316.267129,72.7731313 316.172871,72.7731313 316.08,72.76 L315.08,72.48 C314.737025,72.3799656 314.473471,72.1045551 314.388616,71.7575129 C314.30376,71.4104707 314.410496,71.0445207 314.668616,70.7975129 C314.926735,70.550505 315.297025,70.4599656 315.64,70.56 L316.64,70.84 C317.065165,71.0156569 317.315644,71.4587114 317.24694,71.9135743 C317.178237,72.3684373 316.808078,72.7177495 316.35,72.76 L316.36,72.76 Z" id="Shape" fill="#374555"></path>
            <path d="M329.64,82.68 C327.640201,82.6867611 325.646533,82.4585297 323.7,82 L323.59,82 L318.84,80.29 L318.74,80.29 C314.027895,77.8410279 310.080486,74.1427105 307.33,69.6 C307.170473,69.3534807 307.127354,69.0493057 307.212082,68.7681618 C307.296811,68.4870179 307.500822,68.2573204 307.77,68.14 C311.437783,66.7065433 315.332527,65.9411415 319.27,65.88 C319.822285,65.88 320.27,66.3277153 320.27,66.88 C320.27,67.4322847 319.822285,67.88 319.27,67.88 C316.003977,67.9481571 312.767176,68.5112255 309.67,69.55 C312.153205,73.2831382 315.5466,76.3220513 319.53,78.38 L324.17,80.05 C329.366152,81.1475211 334.77117,80.6776709 339.7,78.7 C338.166735,76.3571007 336.261747,74.2798527 334.06,72.55 C333.783119,72.3231364 333.648301,71.9657915 333.70633,71.6125739 C333.76436,71.2593562 334.00642,70.9639279 334.34133,70.8375739 C334.67624,70.7112199 335.053119,70.7731364 335.33,71 C338.02501,73.1198682 340.312194,75.7120107 342.08,78.65 C342.22783,78.8884444 342.268698,79.1780217 342.19263,79.4480647 C342.116561,79.7181076 341.930554,79.9437765 341.68,80.07 C337.899912,81.7922605 333.793942,82.6823421 329.64,82.68 L329.64,82.68 Z" id="Shape" fill="#374555"></path>
            <path d="M319.66,94.43 C319.261114,94.431389 318.899553,94.1955887 318.74,93.83 C317.918309,91.7385374 317.478018,89.5167635 317.44,87.27 C317.442302,84.574645 318.065049,81.9159958 319.26,79.5 C319.438633,79.1891789 319.769517,78.9972679 320.128013,78.9965579 C320.486508,78.9958479 320.81815,79.1864468 320.998013,79.4965579 C321.177875,79.806669 321.178633,80.1891789 321,80.5 C319.96771,82.6249728 319.434155,84.9575652 319.44,87.32 C319.478865,88.8624782 319.724386,90.3927805 320.17,91.87 C321.957063,90.5822389 323.413523,88.8893185 324.42,86.93 L325.32,84.4 C325.519089,83.5370665 325.626352,82.6554966 325.64,81.77 C325.64,81.2177153 326.087715,80.77 326.64,80.77 C327.192285,80.77 327.64,81.2177153 327.64,81.77 C327.626428,82.8173754 327.499012,83.8601703 327.26,84.88 L327.26,84.99 L326.32,87.63 L326.32,87.73 C324.952938,90.4131136 322.878087,92.6712431 320.32,94.26 C320.126693,94.392201 319.893119,94.452364 319.66,94.43 L319.66,94.43 Z" id="Shape" fill="#374555"></path>
            <path d="M334.72,72.76 C334.499051,72.7593122 334.28455,72.6854677 334.11,72.55 C329.863612,69.3316566 324.634491,67.6816569 319.31,67.88 C318.981094,67.8850329 318.670749,67.7279907 318.48,67.46 C318.288181,67.1933033 318.239586,66.8494036 318.35,66.54 L319.23,64.08 C320.922753,59.3579657 326.122965,56.9022479 330.845,58.5950006 C335.567034,60.2877533 338.022752,65.4879655 336.33,70.21 L335.66,72.09 C335.520209,72.4898911 335.143617,72.7583124 334.72,72.76 L334.72,72.76 Z M320.72,65.89 C325.546455,65.9655757 330.24566,67.4497184 334.24,70.16 L334.46,69.54 C335.779961,65.8590221 333.865978,61.8049606 330.185,60.485 C326.504022,59.1650394 322.449961,61.0790221 321.13,64.76 L320.72,65.89 Z" id="Shape" fill="#374555"></path>
            <path d="M308.73,86.82 C306.990303,86.82 305.58,85.409697 305.58,83.67 C305.58,81.930303 306.990303,80.52 308.73,80.52 C310.469697,80.52 311.88,81.930303 311.88,83.67 C311.88,84.5054319 311.548126,85.3066468 310.957386,85.8973864 C310.366647,86.488126 309.565432,86.82 308.73,86.82 L308.73,86.82 Z M308.73,82.52 C308.094873,82.52 307.58,83.0348725 307.58,83.67 C307.58,84.3051275 308.094873,84.82 308.73,84.82 C309.365127,84.82 309.88,84.3051275 309.88,83.67 C309.88,83.0348725 309.365127,82.52 308.73,82.52 L308.73,82.52 Z" id="Shape" fill="#374555"></path>
            <path d="M334.32,94.4 C332.580303,94.4 331.17,92.989697 331.17,91.25 C331.17,89.510303 332.580303,88.1 334.32,88.1 C336.059697,88.1 337.47,89.510303 337.47,91.25 C337.47,92.989697 336.059697,94.4 334.32,94.4 L334.32,94.4 Z M334.32,90.1 C333.854868,90.1 333.435537,90.3801885 333.257539,90.8099141 C333.07954,91.2396396 333.17793,91.7342751 333.506827,92.0631728 C333.835725,92.3920705 334.33036,92.4904596 334.760086,92.3124615 C335.189811,92.1344633 335.47,91.7151316 335.47,91.25 C335.47,90.6148725 334.955127,90.1 334.32,90.1 L334.32,90.1 Z" id="Shape" fill="#374555"></path>
            <path d="M310.15,82.93 C309.741086,82.9324719 309.371868,82.6857286 309.217723,82.306973 C309.063579,81.9282174 309.155569,81.4937728 309.45,81.21 L314.23,76.59 C314.630245,76.2941492 315.187136,76.3376761 315.536554,76.6921209 C315.885971,77.0465656 315.921538,77.6040225 315.62,78 L310.84,82.62 C310.659462,82.8096934 310.411718,82.9209989 310.15,82.93 L310.15,82.93 Z" id="Shape" fill="#374555"></path>
            <path d="M333.73,89.9 C333.250307,89.9106736 332.830642,89.5791379 332.73,89.11 L331.27,82.46 C331.193188,82.1027344 331.31281,81.7316286 331.583805,81.4864746 C331.8548,81.2413206 332.235997,81.159363 332.583805,81.2714746 C332.931612,81.3835862 333.193188,81.6727344 333.27,82.03 L334.73,88.68 C334.847816,89.2183131 334.507939,89.7504887 333.97,89.87 L333.73,89.9 Z" id="Shape" fill="#374555"></path>
            <path d="M310,65.36 C309.542983,65.3577373 309.145653,65.045925 309.034808,64.6025479 C308.923964,64.1591708 309.127814,63.6970633 309.53,63.48 C311.240745,62.6852109 313.114767,62.3049251 315,62.37 C315.552285,62.37 316,62.8177153 316,63.37 C316,63.9222847 315.552285,64.37 315,64.37 C313.432362,64.3062492 311.871343,64.6074985 310.44,65.25 C310.303694,65.3198814 310.153156,65.3575159 310,65.36 L310,65.36 Z" id="Shape" fill="#374555"></path>
            <path d="M336.37,85.54 C335.817715,85.5593299 335.35433,85.1272847 335.335,84.575 C335.31567,84.0227153 335.747715,83.55933 336.3,83.54 C337.86681,83.4551374 339.392978,83.01029 340.76,82.24 C341.220738,81.9473583 341.831024,82.0782244 342.131266,82.5340463 C342.431508,82.9898682 342.31078,83.6022404 341.86,83.91 C340.20914,84.8777127 338.350789,85.4365897 336.44,85.54 L336.37,85.54 L336.37,85.54 Z" id="Shape" fill="#374555"></path>
            <path d="M317.51,62.78 C317.133001,62.7809799 316.787492,62.5698515 316.616361,62.2339292 C316.445231,61.8980068 316.477568,61.4943905 316.7,61.19 L317.05,60.71 C317.381569,60.2883974 317.986709,60.203463 318.421528,60.5174992 C318.856348,60.8315355 318.965977,61.4326924 318.67,61.88 L318.32,62.36 C318.133324,62.6221956 317.831857,62.7785117 317.51,62.78 L317.51,62.78 Z" id="Shape" fill="#374555"></path>
            <path d="M254,190 C253.593735,190.002363 253.22642,189.758696 253.070629,189.383482 C252.914838,189.008267 253.00154,188.57609 253.29,188.29 C253.856667,187.723333 254.436667,187.17 255.03,186.63 C255.28767,186.360769 255.673673,186.257154 256.03153,186.361159 C256.389388,186.465163 256.659725,186.75953 256.732952,187.124929 C256.806179,187.490329 256.670147,187.866133 256.38,188.1 C255.806667,188.62 255.246667,189.153333 254.7,189.7 C254.51537,189.888414 254.263769,189.996243 254,190 L254,190 Z M261.08,183.88 C260.651332,183.882968 260.268456,183.612384 260.128153,183.207316 C259.98785,182.802248 260.121334,182.352812 260.46,182.09 C261.51,181.27 262.58,180.46 263.65,179.65 C264.091828,179.318629 264.718629,179.408172 265.05,179.85 C265.381371,180.291828 265.291828,180.918629 264.85,181.25 C263.78,182.05 262.73,182.85 261.68,183.67 C261.508165,183.803398 261.297518,183.877124 261.08,183.88 L261.08,183.88 Z M269.84,177.23 C269.411332,177.232968 269.028456,176.962384 268.888153,176.557316 C268.74785,176.152248 268.881334,175.702812 269.22,175.44 C270.36,174.55 271.38,173.74 272.31,172.96 C272.585095,172.73135 272.961276,172.66683 273.29684,172.790744 C273.632404,172.914658 273.87637,173.20818 273.93684,173.560744 C273.997309,173.913308 273.865095,174.27135 273.59,174.5 C272.59,175.3 271.59,176.12 270.44,177.02 C270.264172,177.151894 270.049788,177.222184 269.83,177.22 L269.84,177.23 Z M278.13,170.02 C277.72811,170.018338 277.366263,169.776244 277.211379,169.405395 C277.056495,169.034546 277.138671,168.607006 277.42,168.32 C278.35,167.38 279.25,166.41 280.08,165.44 C280.312223,165.168478 280.67166,165.041471 281.022917,165.106821 C281.374173,165.17217 281.663883,165.419949 281.782917,165.756821 C281.90195,166.093692 281.832223,166.468478 281.6,166.74 C280.74,167.74 279.81,168.74 278.84,169.74 C278.643985,169.918733 278.384985,170.012261 278.12,170 L278.13,170.02 Z M285.01,161.48 C284.644653,161.479392 284.308716,161.279591 284.133769,160.958854 C283.958821,160.638116 283.972712,160.2475 284.17,159.94 C284.87,158.85 285.53,157.71 286.17,156.56 C286.337915,156.24382 286.661755,156.041239 287.019532,156.028568 C287.377309,156.015896 287.714669,156.195059 287.904532,156.498568 C288.094394,156.802076 288.107915,157.18382 287.94,157.5 C287.3,158.7 286.61,159.88 285.88,161.02 C285.686477,161.314611 285.352142,161.485577 285,161.47 L285.01,161.48 Z M289.89,151.66 C289.561658,151.661068 289.253713,151.500883 289.06609,151.231426 C288.878468,150.961969 288.835078,150.617575 288.95,150.31 C289.4,149.11 289.82,147.85 290.2,146.59 C290.301821,146.247025 290.578882,145.984424 290.926817,145.901115 C291.274753,145.817807 291.640703,145.926449 291.886817,146.186115 C292.132932,146.445782 292.221821,146.817025 292.12,147.16 C291.73,148.47 291.3,149.76 290.83,151.01 C290.680267,151.39807 290.305944,151.652928 289.89,151.65 L289.89,151.66 Z M292.81,141.08 L292.62,141.08 C292.079337,140.974196 291.726088,140.45103 291.83,139.91 C291.896667,139.563333 291.96,139.213333 292.02,138.86 C292.193333,137.88 292.386667,136.913333 292.6,135.96 C292.718741,135.407715 293.262715,135.056259 293.815,135.175 C294.367285,135.293741 294.718741,135.837715 294.6,136.39 C294.393333,137.316667 294.206667,138.253333 294.04,139.2 C293.973333,139.566667 293.906667,139.926667 293.84,140.28 C293.736905,140.764608 293.294503,141.100663 292.8,141.07 L292.81,141.08 Z M295.44,130.41 C295.111117,130.426355 294.795263,130.279752 294.595459,130.018008 C294.395655,129.756265 294.337514,129.412934 294.44,129.1 C294.86,127.83 295.32,126.55 295.81,125.28 C296.008823,124.763614 296.588614,124.506177 297.105,124.705 C297.621386,124.903823 297.878823,125.483614 297.68,126 C297.2,127.23 296.76,128.48 296.35,129.72 C296.216078,130.117023 295.848843,130.388458 295.43,130.4 L295.44,130.41 Z M299.6,120.23 C299.254498,120.230692 298.933114,120.052986 298.749998,119.760001 C298.566883,119.467015 298.547978,119.10026 298.7,118.79 C299.29,117.6 299.91,116.39 300.56,115.2 C300.836142,114.716751 301.451751,114.548858 301.935,114.825 C302.418249,115.101142 302.586142,115.716751 302.31,116.2 C301.67,117.36 301.06,118.54 300.49,119.71 C300.308061,120.034016 299.961456,120.230426 299.59,120.22 L299.6,120.23 Z M305.05,110.67 C304.681349,110.671785 304.341616,110.470597 304.165964,110.146478 C303.990312,109.822359 304.007235,109.427885 304.21,109.12 C304.94,108.01 305.71,106.88 306.49,105.78 C306.810325,105.329888 307.434888,105.224675 307.885,105.545 C308.335112,105.865325 308.440325,106.489888 308.12,106.94 C307.35,108.02 306.6,109.12 305.89,110.21 C305.694634,110.507785 305.355634,110.67919 305,110.66 L305.05,110.67 Z M311.61,101.83 C311.219647,101.830026 310.864961,101.60291 310.701653,101.24836 C310.538345,100.89381 310.596271,100.476643 310.85,100.18 C312.5,98.23 313.55,97.18 313.6,97.18 C313.853659,96.9281278 314.222421,96.8307134 314.567378,96.9244521 C314.912335,97.0181907 315.18108,97.2888412 315.272378,97.6344521 C315.363677,97.980063 315.263659,98.3481278 315.01,98.6 C315.01,98.6 314.01,99.6 312.38,101.52 C312.17393,101.731818 311.884725,101.841642 311.59,101.82 L311.61,101.83 Z" id="Shape" fill="#87A6BC"></path>
            <path d="M159.89,186 C159.72925,185.997558 159.571458,185.956395 159.43,185.88 C158.33,185.3 157.14,184.74 155.89,184.22 C155.559529,184.082453 155.327542,183.77905 155.281427,183.42408 C155.235311,183.069111 155.382072,182.716503 155.666427,182.49908 C155.950781,182.281658 156.329529,182.232453 156.66,182.37 C157.97,182.92 159.21,183.5 160.36,184.1 C160.786034,184.30558 161.009739,184.781557 160.896148,185.240758 C160.782556,185.699958 160.362745,186.016749 159.89,186 L159.89,186 Z M149.66,182 C149.570414,182.012206 149.479586,182.012206 149.39,182 C148.16,181.65 146.87,181.32 145.57,181 C145.017715,180.878497 144.668497,180.332285 144.79,179.78 C144.911503,179.227715 145.457715,178.878497 146.01,179 C147.35,179.3 148.67,179.64 149.94,180 C150.297266,180.050017 150.600709,180.286834 150.736025,180.621244 C150.871342,180.955653 150.817974,181.336851 150.596025,181.621244 C150.374076,181.905636 150.017266,182.050017 149.66,182 L149.66,182 Z M92.61,181 L91,181 C90.4477153,181 90,180.552285 90,180 C90,179.447715 90.4477153,179 91,179 L94.92,179 C95.4722847,178.972386 95.9423858,179.397715 95.97,179.95 C95.9976142,180.502285 95.5722847,180.972386 95.02,181 L92.61,181 L92.61,181 Z M84.1,180.33 L84,180.33 C82.68,180.12 81.34,179.87 80,179.58 C79.6427344,179.503188 79.3535861,179.241612 79.2414745,178.893805 C79.1293629,178.545997 79.2113204,178.1648 79.4564745,177.893804 C79.7016286,177.622809 80.0727344,177.503188 80.43,177.58 C81.72,177.87 83.02,178.11 84.3,178.31 C84.8522847,178.362467 85.2574671,178.852715 85.205,179.405 C85.1525329,179.957285 84.6622847,180.362467 84.11,180.31 L84.1,180.33 Z M102.02,180.18 C101.467715,180.215899 100.990899,179.797285 100.955,179.245 C100.919101,178.692715 101.337715,178.215899 101.89,178.18 C103.223333,178.006667 104.556667,177.846667 105.89,177.7 C106.247266,177.660701 106.598359,177.814986 106.811025,178.104737 C107.023692,178.394489 107.065624,178.775687 106.921025,179.104737 C106.776427,179.433788 106.467266,179.660701 106.11,179.7 C104.816667,179.84 103.483333,179.996667 102.11,180.17 L102,180.17 L102.02,180.18 Z M138.9,179.8 L138.76,179.8 C137.48,179.62 136.16,179.46 134.83,179.32 C134.472734,179.284273 134.161667,179.060662 134.013975,178.733397 C133.866282,178.406133 133.904402,178.024935 134.113975,177.733397 C134.323547,177.44186 134.672734,177.284273 135.03,177.32 C136.38,177.46 137.73,177.62 139.03,177.81 C139.507674,177.918494 139.836445,178.35703 139.806662,178.845964 C139.77688,179.334898 139.397311,179.730287 138.91,179.78 L138.9,179.8 Z M113,179.07 C112.447715,179.08933 111.98433,178.657285 111.965,178.105 C111.94567,177.552715 112.377715,177.08933 112.93,177.07 C114.303333,176.976667 115.636667,176.903333 116.93,176.85 C117.482285,176.85 117.93,177.297715 117.93,177.85 C117.93,178.402285 117.482285,178.85 116.93,178.85 C115.636667,178.903333 114.303333,178.976667 112.93,179.07 L113,179.07 L113,179.07 Z M128,178.82 L128,178.82 C126.72,178.773333 125.386667,178.743333 124,178.73 C123.447715,178.73 123,178.282285 123,177.73 C123,177.177715 123.447715,176.73 124,176.73 C125.38,176.73 126.713333,176.76 128,176.82 C128.511041,176.871297 128.900125,177.301391 128.900125,177.815 C128.900125,178.328609 128.511041,178.758703 128,178.81 L128,178.82 Z M73.47,177.7 C73.361325,177.700833 73.2532411,177.683944 73.15,177.65 C71.88,177.23 70.59,176.76 69.34,176.26 C68.9500083,176.189678 68.638334,175.895698 68.5453641,175.510477 C68.4523943,175.125256 68.5956706,174.721477 68.9106571,174.481015 C69.2256437,174.240552 69.6529089,174.208776 70,174.4 C71.22,174.88 72.47,175.34 73.71,175.75 C74.1578978,175.910163 74.4309863,176.363664 74.3630366,176.834459 C74.2950869,177.305253 73.9049073,177.663026 73.43,177.69 L73.47,177.7 Z M63.32,173.45 C63.1600767,173.450643 63.0023316,173.412922 62.86,173.34 C60.61,172.18 59.33,171.34 59.28,171.34 C58.8485683,171.029203 58.7357998,170.43513 59.0233325,169.987857 C59.3108652,169.540583 59.8981387,169.396538 60.36,169.66 C60.36,169.66 61.62,170.46 63.78,171.57 C64.1874618,171.78956 64.3910045,172.260049 64.2720411,172.707351 C64.1530776,173.154654 63.7426997,173.461866 63.28,173.45 L63.32,173.45 Z" id="Shape" fill="#87A6BC"></path>
            <path d="M16.58,117.77 L17.31,117.77 C18.4191151,117.774381 19.4802589,117.318053 20.24,116.51 C21.24,115.67 22.65,114.51 27.56,114.51 C32.3581892,114.561949 37.0813156,115.707675 41.37,117.86 C41.7633565,118.071568 42.2366435,118.071568 42.63,117.86 C44.4158238,117.111636 46.3458015,116.770047 48.28,116.86 C49.3095069,116.889933 50.3254196,117.103274 51.28,117.49 C49.49077,118.208216 48.326829,119.952141 48.35,121.88 C48.3324799,122.242308 48.4884255,122.59133 48.77,122.82 C54.94,128.36 57.66,133.7 57.66,140.82 C57.6772835,141.256347 57.8637921,141.668818 58.18,141.97 C59.7571946,143.371392 60.9165159,145.181317 61.53,147.2 C60.297625,146.700436 58.9885864,146.416304 57.66,146.36 C55.8896294,146.499444 54.1897804,147.11443 52.74,148.14 C52.32,145.94 54.83,142.6 55.88,141.45 C56.2544037,141.058019 56.3387499,140.471613 56.09,139.99 C52.74,133.4 47.3,131.2 41.76,128.99 C39.88,128.26 37.89,127.42 36.01,126.48 C36.4280255,125.960295 36.4280255,125.219705 36.01,124.7 C35.7741349,124.43714 35.4434073,124.278885 35.090738,124.260126 C34.7380687,124.241367 34.3924191,124.363645 34.13,124.6 C32.424358,126.065342 31.2473484,128.050448 30.78,130.25 C30.36,131.71 30.26,131.82 29.94,131.82 C29.6640057,131.61168 29.4183198,131.365994 29.21,131.09 C27.6676241,128.497348 27.3597429,125.35256 28.37,122.51 C28.6383189,122.080987 28.639948,121.536879 28.374203,121.106267 C28.108458,120.675654 27.6213811,120.433143 27.1176016,120.480617 C26.6138221,120.528091 26.1806236,120.857324 26,121.33 C25.9,121.43 25.9,121.64 25.79,121.75 C24.6345117,121.158644 23.4458703,120.634439 22.23,120.18 C20.13,119.23 18,118.4 16.58,117.77 L16.58,117.77 Z" id="Shape" fill="#4CA9DF"></path>
            <path d="M27.56,114.53 C32.3581892,114.581949 37.0813156,115.727675 41.37,117.88 C41.7633565,118.091568 42.2366435,118.091568 42.63,117.88 C44.4158238,117.131636 46.3458015,116.790047 48.28,116.88 C49.3095069,116.909933 50.3254196,117.123274 51.28,117.51 C49.49077,118.228216 48.326829,119.972141 48.35,121.9 C48.3324799,122.262308 48.4884255,122.61133 48.77,122.84 C54.94,128.38 57.66,133.72 57.66,140.84 C57.6772835,141.276347 57.8637921,141.688818 58.18,141.99 C59.7571946,143.391392 60.9165159,145.201317 61.53,147.22 C60.297625,146.720436 58.9885864,146.436304 57.66,146.38 C55.8896294,146.519444 54.1897804,147.13443 52.74,148.16 C52.32,145.96 54.83,142.62 55.88,141.47 C56.2544037,141.078019 56.3387499,140.491613 56.09,140.01 C52.74,133.42 47.3,131.22 41.76,129.01 C39.88,128.28 37.89,127.44 36.01,126.5 C36.4280255,125.980295 36.4280255,125.239705 36.01,124.72 C35.7454077,124.449166 35.388181,124.288414 35.01,124.27 C34.695696,124.265895 34.39296,124.388431 34.17,124.61 C32.464358,126.075342 31.2873484,128.060448 30.82,130.26 C30.4,131.72 30.3,131.83 29.98,131.83 C29.7040057,131.62168 29.4583198,131.375994 29.25,131.1 C27.7076241,128.507348 27.3997429,125.36256 28.41,122.52 C28.7188773,121.854064 28.439023,121.063365 27.78,120.74 C27.5968109,120.661063 27.3994726,120.620234 27.2,120.62 C26.689159,120.618799 26.222772,120.910291 26,121.37 C25.9,121.47 25.9,121.68 25.79,121.79 C24.6345117,121.198644 23.4458703,120.674439 22.23,120.22 C20.14,119.28 18.05,118.44 16.58,117.81 L17.31,117.81 C18.4191151,117.814381 19.4802589,117.358053 20.24,116.55 C21.24,115.71 22.65,114.55 27.56,114.55 L27.56,114.53 Z M27.56,112.55 C22.45,112.55 20.56,113.73 19.04,114.94 L19.04,114.94 L18.99,114.94 C18.5874166,115.425273 17.9905201,115.707242 17.36,115.71 L16.58,115.71 C15.628454,115.707057 14.8065869,116.374941 14.6148409,117.306972 C14.423095,118.239004 14.9145689,119.177081 15.79,119.55 L17.46,120.25 C18.67,120.75 20.04,121.32 21.41,121.94 L21.55,122 C22.694536,122.427673 23.8131085,122.921848 24.9,123.48 C25.1764684,123.617792 25.4810968,123.68967 25.79,123.69 L25.95,123.69 C25.4724596,126.61655 26.0577288,129.617385 27.6,132.15 C27.8655047,132.558851 28.204579,132.914879 28.6,133.2 C28.9688461,133.54533 29.4547303,133.738255 29.96,133.74 C31.86,133.74 32.32,132.14 32.72,130.74 C32.9871966,129.511038 33.5046086,128.350265 34.24,127.33 C34.4331529,127.714718 34.7452819,128.026847 35.13,128.22 C36.84,129.07 38.78,129.92 41.05,130.81 C46.18,132.81 51.05,134.81 54.05,140.41 C53.05,141.63 50.15,145.35 50.74,148.46 C50.869762,149.098535 51.3024448,149.633829 51.8995835,149.89458 C52.4967222,150.15533 53.1834485,150.108845 53.74,149.77 C54.8633327,148.941429 56.1905318,148.43336 57.58,148.3 C58.6758429,148.36187 59.7538208,148.605176 60.77,149.02 C61.4698632,149.275776 62.2538885,149.121274 62.804389,148.6191 C63.3548896,148.116926 63.5805759,147.350354 63.39,146.63 C62.6954192,144.297456 61.3823019,142.196468 59.59,140.55 C59.54,133.12 56.74,127.39 50.29,121.55 C50.3801522,120.51343 51.068566,119.625532 52.05,119.28 C52.7832101,118.941524 53.2409181,118.195307 53.2103008,117.388322 C53.1796835,116.581337 52.6667491,115.871946 51.91,115.59 C50.7186902,115.116751 49.451667,114.862668 48.17,114.84 C46.0564682,114.810326 43.9584439,115.204768 42,116 C37.5065812,113.783287 32.5702865,112.610746 27.56,112.57 L27.56,112.57 L27.56,112.55 Z" id="Shape" fill="#374555"></path>
            <path d="M14,130.23 C18.7981892,130.281949 23.5213156,131.427675 27.81,133.58 C28.2033565,133.791568 28.6766435,133.791568 29.07,133.58 C30.8558238,132.831636 32.7858015,132.490047 34.72,132.58 C35.7495069,132.609933 36.7654196,132.823274 37.72,133.21 C35.93077,133.928216 34.766829,135.672141 34.79,137.6 C34.7724799,137.962308 34.9284255,138.31133 35.21,138.54 C41.38,144.08 44.1,149.42 44.1,156.54 C44.1172835,156.976347 44.3037921,157.388818 44.62,157.69 C46.1971946,159.091392 47.3565159,160.901317 47.97,162.92 C46.737625,162.420436 45.4285864,162.136304 44.1,162.08 C42.3296294,162.219444 40.6297804,162.83443 39.18,163.86 C38.76,161.66 41.27,158.32 42.32,157.17 C42.6944037,156.778019 42.7787499,156.191613 42.53,155.71 C39.18,149.12 33.74,146.92 28.2,144.71 C26.32,143.98 24.33,143.14 22.45,142.2 C22.8680255,141.680295 22.8680255,140.939705 22.45,140.42 C22.1854077,140.149166 21.828181,139.988414 21.45,139.97 C21.135696,139.965895 20.83296,140.088431 20.61,140.31 C18.904358,141.775342 17.7273484,143.760448 17.26,145.96 C16.84,147.42 16.74,147.53 16.42,147.53 C16.1440057,147.32168 15.8983198,147.075994 15.69,146.8 C14.1476241,144.207348 13.8397429,141.06256 14.85,138.22 C15.1588773,137.554064 14.879023,136.763365 14.22,136.44 C14.0368109,136.361063 13.8394726,136.320234 13.64,136.32 C13.129159,136.318799 12.662772,136.610291 12.44,137.07 C12.34,137.17 12.34,137.38 12.23,137.49 C11.0745117,136.898644 9.88587031,136.374439 8.67,135.92 C6.58,134.98 4.49,134.14 3.02,133.51 L3.7,133.51 C4.80911512,133.514381 5.87025887,133.058053 6.63,132.25 C7.63,131.41 9.04,130.25 13.95,130.25 L14,130.23 Z M13.95,128.25 C8.84,128.25 6.95,129.43 5.43,130.64 L5.43,130.64 L5.38,130.64 C4.97741657,131.125273 4.38052011,131.407242 3.75,131.41 L3,131.41 C2.04845401,131.407057 1.2265869,132.074941 1.03484093,133.006972 C0.843094951,133.939004 1.33456895,134.877081 2.21,135.25 L3.85,136 C5.06,136.5 6.43,137.07 7.8,137.69 L7.94,137.75 C9.08453603,138.177673 10.2031085,138.671848 11.29,139.23 C11.5664684,139.367792 11.8710968,139.43967 12.18,139.44 L12.34,139.44 C11.8654377,142.367748 12.4542709,145.368669 14,147.9 C14.260513,148.3268 14.5998861,148.70011 15,149 C15.3688461,149.34533 15.8547303,149.538255 16.36,149.54 C18.26,149.54 18.72,147.94 19.12,146.54 C19.3871966,145.311038 19.9046086,144.150265 20.64,143.13 C20.8331529,143.514718 21.1452819,143.826847 21.53,144.02 C23.24,144.87 25.18,145.72 27.45,146.61 C32.58,148.61 37.45,150.61 40.5,156.21 C39.5,157.43 36.6,161.15 37.19,164.26 C37.319762,164.898535 37.7524448,165.433829 38.3495835,165.69458 C38.9467222,165.95533 39.6334485,165.908845 40.19,165.57 C41.3166406,164.697198 42.6631502,164.153748 44.08,164 C45.1758429,164.06187 46.2538208,164.305176 47.27,164.72 C47.9698632,164.975776 48.7538885,164.821274 49.304389,164.3191 C49.8548896,163.816926 50.0805759,163.050354 49.89,162.33 C49.1954192,159.997456 47.8823019,157.896468 46.09,156.25 C46.04,148.81 43.25,143.09 36.79,137.25 C36.8859506,136.223422 37.5686274,135.345694 38.54,135 C39.2732101,134.661524 39.7309181,133.915307 39.7003008,133.108322 C39.6696835,132.301337 39.1567491,131.591946 38.4,131.31 C37.2086902,130.836751 35.941667,130.582668 34.66,130.56 C32.514974,130.507294 30.3816666,130.891765 28.39,131.69 C23.9141925,129.470218 18.9956947,128.287591 14,128.23 L14,128.23 L13.95,128.25 Z" id="Shape" fill="#374555"></path>
            <path d="M77.53,161.94 C76.4373081,161.94 75.3893699,161.50593 74.6167201,160.73328 C73.8440702,159.96063 73.41,158.912692 73.41,157.82 C73.41,157.267715 73.8577153,156.82 74.41,156.82 C74.9622847,156.82 75.41,157.267715 75.41,157.82 C75.4864899,158.931739 76.4106325,159.794484 77.525,159.794484 C78.6393675,159.794484 79.5635101,158.931739 79.64,157.82 C79.64,157.267715 80.0877153,156.82 80.64,156.82 C81.1922847,156.82 81.64,157.267715 81.64,157.82 C81.6400067,160.091514 79.8015069,161.934487 77.53,161.94 L77.53,161.94 Z" id="Shape" fill="#374555"></path>
            <path d="M71.38,161.92 C69.1045868,161.92 67.26,160.075413 67.26,157.8 C67.26,157.247715 67.7077153,156.8 68.26,156.8 C68.8122847,156.8 69.26,157.247715 69.26,157.8 C69.3364899,158.911739 70.2606325,159.774484 71.375,159.774484 C72.4893675,159.774484 73.4135101,158.911739 73.49,157.8 C73.49,157.247715 73.9377153,156.8 74.49,156.8 C75.0422847,156.8 75.49,157.247715 75.49,157.8 C75.4900067,160.071514 73.6515069,161.914487 71.38,161.92 L71.38,161.92 Z" id="Shape" fill="#374555"></path>
            <path d="M65.15,161.92 C64.0538505,161.927985 62.9997099,161.498816 62.2208501,160.727463 C61.4419903,159.95611 61.0026315,158.906175 61,157.81 C61,157.257715 61.4477153,156.81 62,156.81 C62.5522847,156.81 63,157.257715 63,157.81 C63.0764899,158.921739 64.0006325,159.784484 65.115,159.784484 C66.2293675,159.784484 67.1535101,158.921739 67.23,157.81 C67.23,157.257715 67.6777153,156.81 68.23,156.81 C68.7822847,156.81 69.23,157.257715 69.23,157.81 C69.2246306,160.065985 67.405885,161.898104 65.15,161.92 L65.15,161.92 Z" id="Shape" fill="#374555"></path>
            <path d="M58.91,161.92 C56.6345868,161.92 54.79,160.075413 54.79,157.8 C54.79,157.247715 55.2377153,156.8 55.79,156.8 C56.3422847,156.8 56.79,157.247715 56.79,157.8 C56.8664899,158.911739 57.7906325,159.774484 58.905,159.774484 C60.0193675,159.774484 60.9435101,158.911739 61.02,157.8 C61.02,157.247715 61.4677153,156.8 62.02,156.8 C62.5722847,156.8 63.02,157.247715 63.02,157.8 C63.0200067,160.071514 61.1815069,161.914487 58.91,161.92 L58.91,161.92 Z" id="Shape" fill="#374555"></path>
            <path d="M65.94,144.25 C65.5163826,144.248312 65.1397915,143.979891 65,143.58 C64.4541172,142.231137 63.5562163,141.053506 62.4,140.17 C61.949888,139.849675 61.844675,139.225112 62.1650001,138.775 C62.4853252,138.324888 63.1098879,138.219675 63.56,138.54 C65.0536007,139.659848 66.2065155,141.172832 66.89,142.91 C67.0013951,143.218067 66.9548386,143.56116 66.7653763,143.828401 C66.575914,144.095643 66.2675731,144.253142 65.94,144.25 L65.94,144.25 Z" id="Shape" fill="#374555"></path>
            <path d="M34.46,161.66 L34.33,161.66 C33.7836856,161.587428 33.3990672,161.08653 33.47,160.54 C33.7603869,158.69105 34.5603108,156.959613 35.78,155.54 C36.0138666,155.249853 36.3896715,155.113821 36.7550708,155.187048 C37.1204702,155.260275 37.4148373,155.530612 37.5188415,155.88847 C37.6228457,156.246327 37.5192307,156.63233 37.25,156.89 C36.3073366,157.998801 35.6849977,159.343744 35.45,160.78 C35.3894239,161.281169 34.9648147,161.658599 34.46,161.66 L34.46,161.66 Z" id="Shape" fill="#374555"></path>
            <path d="M19.39,134.8 C19.2667108,134.799059 19.1446587,134.775327 19.03,134.73 C17.5623106,134.216907 16.0241811,133.933567 14.47,133.89 C13.9177153,133.89 13.47,133.442285 13.47,132.89 C13.47,132.337715 13.9177153,131.89 14.47,131.89 C16.258667,131.943144 18.0274692,132.280702 19.71,132.89 C20.1267482,133.075319 20.3653005,133.519144 20.2899372,133.968969 C20.2145738,134.418794 19.8443922,134.760631 19.39,134.8 L19.39,134.8 Z" id="Shape" fill="#374555"></path>
            <path d="M34,119.21 C33.8767108,119.209059 33.7546587,119.185327 33.64,119.14 C32.1723106,118.626907 30.6341811,118.343567 29.08,118.3 C28.5277153,118.3 28.08,117.852285 28.08,117.3 C28.08,116.747715 28.5277153,116.3 29.08,116.3 C30.868667,116.353144 32.6374692,116.690702 34.32,117.3 C34.7367482,117.485319 34.9753005,117.929144 34.8999372,118.378969 C34.8245738,118.828794 34.4543922,119.170631 34,119.21 L34,119.21 Z" id="Shape" fill="#374555"></path>
            <path d="M217.43,185.53 C217.080498,185.530728 216.755976,185.348932 216.574058,185.050506 C216.392141,184.752079 216.379228,184.38033 216.54,184.07 C217.221136,182.818929 218.076324,181.670821 219.08,180.66 C219.466597,180.305628 220.061284,180.310119 220.442486,180.670289 C220.823687,181.030459 220.861885,181.623934 220.53,182.03 C219.651345,182.919549 218.903841,183.929689 218.31,185.03 C218.128894,185.343767 217.792248,185.535043 217.43,185.53 L217.43,185.53 Z M224.95,177.63 C224.5313,177.630032 224.15691,177.369216 224.011853,176.976446 C223.866796,176.583677 223.981788,176.142123 224.3,175.87 C225.22,175.1 226.24,174.25 227.39,173.31 C227.664504,173.063187 228.052655,172.987676 228.399667,173.113579 C228.74668,173.239481 228.996108,173.546317 229.048486,173.911729 C229.100864,174.27714 228.947673,174.641688 228.65,174.86 C227.51,175.79 226.49,176.63 225.59,177.39 C225.411478,177.542689 225.184901,177.627655 224.95,177.63 L224.95,177.63 Z M232.82,170.08 C232.47228,170.077252 232.150952,169.894067 231.971447,169.596251 C231.791941,169.298435 231.780033,168.928751 231.94,168.62 C232.49997,167.527738 232.881464,166.352871 233.07,165.14 C233.127162,164.782734 233.370582,164.483103 233.708564,164.353975 C234.046546,164.224846 234.427744,164.285838 234.708564,164.513975 C234.989384,164.742112 235.127162,165.102734 235.07,165.46 C234.844927,166.88622 234.392512,168.267098 233.73,169.55 C233.551793,169.885013 233.199322,170.090298 232.82,170.08 L232.82,170.08 Z M233.82,159.33 C233.334136,159.338836 232.912249,158.997108 232.82,158.52 C232.59081,157.270644 232.256283,156.042928 231.82,154.85 C231.651804,154.348974 231.902516,153.803573 232.392302,153.605012 C232.882088,153.40645 233.441818,153.623293 233.67,154.1 C234.161635,155.398146 234.539719,156.736497 234.8,158.1 C234.903912,158.64103 234.550663,159.164196 234.01,159.27 L233.82,159.33 Z" id="Shape" fill="#87A6BC"></path>
        </g>
    </g>
</svg>